<?xml version="1.0" encoding="UTF-8" standalone="no"?>
<!-- Created with Inkscape (http://www.inkscape.org/) -->

<svg
   xmlns:dc="http://purl.org/dc/elements/1.1/"
   xmlns:cc="http://creativecommons.org/ns#"
   xmlns:rdf="http://www.w3.org/1999/02/22-rdf-syntax-ns#"
   xmlns:svg="http://www.w3.org/2000/svg"
   xmlns="http://www.w3.org/2000/svg"
   xmlns:sodipodi="http://sodipodi.sourceforge.net/DTD/sodipodi-0.dtd"
   xmlns:inkscape="http://www.inkscape.org/namespaces/inkscape"
   sodipodi:docname="eminus.svg"
   width="294mm"
   height="83mm"
   viewBox="0 0 1041.7329 294.09459"
   id="svg2"
   version="1.1"
   inkscape:version="0.91 r13725">
  <sodipodi:namedview
     id="base"
     pagecolor="#ffffff"
     bordercolor="#666666"
     borderopacity="1.0"
     inkscape:pageopacity="0.0"
     inkscape:pageshadow="2"
     inkscape:zoom="0.50000001"
     inkscape:cx="205.81504"
     inkscape:cy="164.59163"
     inkscape:document-units="px"
     inkscape:current-layer="text4411"
     showgrid="false"
     showguides="true"
     inkscape:window-width="1301"
     inkscape:window-height="744"
     inkscape:window-x="65"
     inkscape:window-y="24"
     inkscape:window-maximized="1"
     width="51mm" />
  <defs
     id="defs4" />
  <metadata
     id="metadata7">
    <rdf:RDF>
      <cc:Work
         rdf:about="">
        <dc:format>image/svg+xml</dc:format>
        <dc:type
           rdf:resource="http://purl.org/dc/dcmitype/StillImage" />
        <dc:title></dc:title>
      </cc:Work>
    </rdf:RDF>
  </metadata>
  <g
     inkscape:label="Layer 1"
     inkscape:groupmode="layer"
     id="layer1"
     transform="translate(0,-758.26771)">
    <g
       style="font-style:normal;font-variant:normal;font-weight:normal;font-stretch:normal;font-size:50px;line-height:125%;font-family:Comfortaa;-inkscape-font-specification:Comfortaa;letter-spacing:0px;word-spacing:0px;fill:#006700;fill-opacity:1;stroke:none;stroke-width:1px;stroke-linecap:butt;stroke-linejoin:miter;stroke-opacity:1"
       id="text4142"
       transform="matrix(5.5338785,0,0,5.5338785,-812.32463,-2155.9031)">
      <path
         d="m 309.00663,556.70928 c 0,0.53711 -1.58427,0.59627 -1.9749,0.9869 -0.37435,0.37435 0.36948,2.8975 -0.16763,2.8975 -0.53711,0 0.76679,3.09582 0.37616,2.72147 -0.37435,-0.39063 -1.99907,2.80658 -2.01361,3.34349 l -0.12627,4.66341 c -2.44141,2.36002 -5.6307,3.55393 -8.78907,3.54003 -3.24017,-0.0143 -6.49414,-1.23698 -8.98437,-3.71093 -2.47396,-2.49023 -3.71094,-5.48503 -3.71094,-8.98438 l 0,-12.69531 c 0,-0.53711 0.18717,-0.99284 0.56152,-1.36719 0.39063,-0.39063 0.8545,-0.58594 1.39161,-0.58594 0.53711,0 0.99283,0.19531 1.36718,0.58594 0.39063,0.37435 0.58594,0.83008 0.58594,1.36719 l 0,12.69531 c 0,2.42513 0.85449,4.50033 2.56348,6.22559 1.72526,1.70898 3.80045,2.56347 6.22558,2.56347 2.42513,0 4.49219,-0.85449 6.20117,-2.56347 1.72527,-1.72526 2.5879,-3.80046 2.5879,-6.22559 l 0,-12.69531 c 0,-0.53711 0.18717,-0.99284 0.56152,-1.36719 0.39063,-0.39063 0.85449,-0.58594 1.3916,-0.58594 0.53711,0 0.99284,0.19531 1.36719,0.58594 0.39063,0.37435 0.58594,0.83008 0.58594,1.36719 z"
         id="path4302"
         inkscape:connector-curvature="0"
         sodipodi:nodetypes="ssscscacsssscsscsssssscss"
         style="fill:#006700;fill-opacity:1" />
      <path
         style="font-style:normal;font-variant:normal;font-weight:normal;font-stretch:normal;font-size:50px;line-height:125%;font-family:Comfortaa;-inkscape-font-specification:Comfortaa;letter-spacing:0px;word-spacing:0px;fill:#006700;fill-opacity:1;stroke:none;stroke-width:1px;stroke-linecap:butt;stroke-linejoin:miter;stroke-opacity:1"
         d="m 283.616,556.90938 c 0,0.53711 0.68638,8.83091 1.07701,9.22154 0.37435,0.37435 0.33901,2.61509 0.87612,2.61509 0.53711,0 0.5099,0.83961 0.90053,0.46526 0.37435,-0.39063 0.21256,0.88904 0.51687,1.33162 l 0.53573,0.77916 c 2.44141,2.36002 5.6307,3.55393 8.78907,3.54003 3.24017,-0.0143 6.49414,-1.23698 8.98437,-3.71093 2.47396,-2.49023 3.71094,-5.48503 3.71094,-8.98438 l 0,-12.69531 c 0,-0.53711 -0.18717,-0.99284 -0.56152,-1.36719 -0.39063,-0.39063 -0.8545,-0.58594 -1.39161,-0.58594 -0.53711,0 -0.99283,0.19531 -1.36718,0.58594 -0.39063,0.37435 -0.58594,0.83008 -0.58594,1.36719 l 0,12.69531 c 0,2.42513 -0.85449,4.50033 -2.56348,6.22559 -1.72526,1.70898 -3.80045,2.56347 -6.22558,2.56347 -2.42513,0 -4.49219,-0.85449 -6.20117,-2.56347 -1.72527,-1.72526 -2.5879,-3.80046 -2.5879,-6.22559 l 0,-12.69531 c 0,-0.53711 -0.18717,-0.99284 -0.56152,-1.36719 -0.39063,-0.39063 -0.85449,-0.58594 -1.3916,-0.58594 -0.53711,0 -0.99284,0.19531 -1.36719,0.58594 -0.39063,0.37435 -0.58594,0.83008 -0.58594,1.36719 z"
         id="path4302-3"
         inkscape:connector-curvature="0"
         sodipodi:nodetypes="ssscscacsssscsscsssssscss" />
    </g>
    <g
       style="font-style:normal;font-weight:normal;font-size:50px;line-height:125%;font-family:sans-serif;letter-spacing:0px;word-spacing:0px;fill:#000000;fill-opacity:1;stroke:none;stroke-width:1px;stroke-linecap:butt;stroke-linejoin:miter;stroke-opacity:1"
       id="text4411">
      <g
         style="font-style:normal;font-variant:normal;font-weight:300;font-stretch:normal;font-size:80px;line-height:125%;font-family:Comfortaa;-inkscape-font-specification:'Comfortaa Light';letter-spacing:0px;word-spacing:0px;fill:#59c859;fill-opacity:1;stroke:none;stroke-width:1px;stroke-linecap:butt;stroke-linejoin:miter;stroke-opacity:1"
         id="text4152"
         transform="matrix(6.194812,0,0,6.9479213,-957.31357,-2892.2128)">
        <path
           style="fill:#59c859;fill-opacity:1"
           d="m 154.55092,551.75442 c 0,-6.44902 2.75317,-11.02845 7.93215,-15.58759 5.20108,-4.57859 11.46456,-6.86791 18.79039,-6.86791 6.30772,0 11.91826,1.77299 16.83167,5.31898 0.39838,0.3507 0.59757,0.77934 0.59757,1.28592 0,0.48707 -0.1991,0.90597 -0.59757,1.25669 -0.39839,0.35068 -0.87422,0.52604 -1.42753,0.52604 -0.57545,0 -1.13982,-0.23381 -1.69314,-0.70141 -3.82888,-2.72767 -8.39924,-4.09153 -13.711,-4.09153 -6.19707,0 -15.51738,1.99704 -19.9217,5.87425 -4.38222,3.85772 -6.80084,7.53119 -6.80084,12.98656"
           id="path4157"
           inkscape:connector-curvature="0"
           sodipodi:nodetypes="csscscscssc" />
      </g>
      <path
         d="m 219.90499,929.23841 q -3.30226,-17.25928 -16.51301,-30.47344 -17.56382,-17.5613 -42.48326,-17.5613 -24.91918,0 -42.48306,17.5613 -13.21029,13.21416 -16.51287,30.47344 l 117.9922,0 z m -12.76011,55.25181 q 4.9539,0 8.4067,3.5992 3.60272,3.4537 3.60272,8.4101 0,4.94208 -3.45259,8.55018 -23.26814,20.2645 -54.79299,20.2645 -34.82713,0 -59.44633,-24.6207 -24.619264,-24.61694 -24.619264,-59.4452 0,-34.82277 24.619264,-59.44658 24.6192,-24.61638 59.44633,-24.61638 34.82741,0 59.44673,24.61638 24.6191,24.62381 24.6191,59.44658 0,4.92878 -3.60277,8.55249 -3.45271,3.45785 -8.40697,3.45785 l -131.05202,0 q 3.30258,17.26189 16.51287,30.46878 17.56388,17.57548 42.48306,17.57548 22.5176,0 38.73014,-14.27118 3.30287,-2.5415 7.50602,-2.5415 z"
         style="font-style:normal;font-variant:normal;font-weight:normal;font-stretch:normal;font-family:Comfortaa;-inkscape-font-specification:Comfortaa;fill:#1a962b;fill-opacity:1;stroke:none;stroke-opacity:1"
         id="path4418"
         inkscape:connector-curvature="0" />
      <path
         d="m 314.64356,1014.5065 q 0,4.4645 -3.24253,7.6862 -3.10724,3.1215 -7.56568,3.1215 -4.45842,0 -7.70077,-3.1215 -3.10765,-3.2217 -3.10765,-7.6862 l 0,-129.7033 q 0,-4.45304 3.10765,-7.56258 3.24235,-3.24498 7.70077,-3.24498 4.45844,0 7.56568,3.24498 3.24253,3.10954 3.24253,7.56258 l 0,2.83763 q 16.07761,-13.64519 37.82948,-13.64519 24.58916,0 42.01714,17.42605 3.6478,3.65794 6.62047,7.70434 2.97189,-4.0464 6.61992,-7.70434 17.42883,-17.42605 42.01762,-17.42605 24.58889,0 42.01737,17.42605 17.4284,17.43363 17.4284,42.02258 l 0,81.06223 q 0,4.4645 -3.24242,7.6862 -3.10747,3.1215 -7.56562,3.1215 -4.45838,0 -7.7011,-3.1215 -3.10745,-3.2217 -3.10745,-7.6862 l 0,-81.06223 q 0,-15.67257 -11.07856,-26.75545 -11.07859,-11.07711 -26.75062,-11.07711 -15.67235,0 -26.75087,11.07711 -11.0783,11.08288 -11.0783,26.75545 l 0,81.06223 q 0,4.4645 -3.24243,7.6862 -3.10778,3.1215 -7.56594,3.1215 -4.45858,0 -7.70107,-3.1215 -3.10712,-3.2217 -3.10712,-7.6862 l 0,-81.06223 q 0,-15.67257 -11.07964,-26.75545 -11.0781,-11.07711 -26.74978,-11.07711 -15.6726,0 -26.75082,11.07711 -11.07866,11.08288 -11.07866,26.75545 l 0,81.06223 z"
         style="font-style:normal;font-variant:normal;font-weight:normal;font-stretch:normal;font-family:Comfortaa;-inkscape-font-specification:Comfortaa;fill:#006700;fill-opacity:1;stroke:none;stroke-opacity:1"
         id="path4420"
         inkscape:connector-curvature="0" />
      <path
         style="font-style:normal;font-variant:normal;font-weight:normal;font-stretch:normal;font-family:Comfortaa;-inkscape-font-specification:Comfortaa;fill:#006700;fill-opacity:1;stroke:none;stroke-opacity:1"
         d="m 541.61941,884.8032 c 0,-2.97191 1.03519,-5.49343 3.10716,-7.56258 2.16203,-2.16329 4.72847,-3.24498 7.70039,-3.24498 2.9729,0 5.49453,1.08169 7.56717,3.24498 2.1607,2.06915 3.24189,4.59067 3.24189,7.56258 l 0,129.7033 c 0,2.9678 -1.08119,5.5469 -3.24189,7.6862 -2.07264,2.081 -4.59427,3.1215 -7.56717,3.1215 -2.97192,0 -5.53836,-1.0405 -7.70039,-3.1215 -2.07197,-2.1393 -3.10716,-4.7184 -3.10716,-7.6862 z"
         id="path4422"
         inkscape:connector-curvature="0" />
      <path
         d="m 595.66107,884.8032 q 0,-4.45304 3.10812,-7.56258 3.24169,-3.24498 7.69976,-3.24498 4.45885,0 7.56646,3.24498 3.24232,3.10954 3.24232,7.56258 l 0,8.78904 q 20.2664,-19.5966 48.63735,-19.5966 29.04709,0 49.58349,20.67325 20.66747,20.53431 20.66747,49.58091 l 0,70.2567 q 0,4.4645 -3.23867,7.6862 -3.1086,3.1215 -7.56593,3.1215 -4.4589,0 -7.7013,-3.1215 -3.10776,-3.2217 -3.10776,-7.6862 l 0,-70.2567 q 0,-20.12915 -14.31999,-34.32061 -14.18688,-14.31748 -34.31731,-14.31748 -20.13097,0 -34.45168,14.31748 -14.18567,14.19146 -14.18567,34.32061 l 0,70.2567 q 0,4.4645 -3.24232,7.6862 -3.10761,3.1215 -7.56646,3.1215 -4.45807,0 -7.69976,-3.1215 -3.10812,-3.2217 -3.10812,-7.6862 l 0,-129.7033 z"
         style="font-style:normal;font-variant:normal;font-weight:normal;font-stretch:normal;font-family:Comfortaa;-inkscape-font-specification:Comfortaa;fill:#006700;fill-opacity:1;stroke:none;stroke-opacity:1"
         id="path4424"
         inkscape:connector-curvature="0" />
      <path
         style="font-style:normal;font-variant:normal;font-weight:normal;font-stretch:normal;font-family:Comfortaa;-inkscape-font-specification:Comfortaa;fill:#006700;fill-opacity:1;stroke:none;stroke-opacity:1"
         d="m 208.94659,845.46044 q -4.95359,0 -8.55644,-3.44348 -3.45279,-3.6074 -3.45279,-8.5613 0,-4.95933 3.45279,-8.40894 3.60285,-3.60331 8.55644,-3.60331 l 72.0555,0 q 4.95391,0 8.40672,3.60331 3.60291,3.44961 3.60291,8.40894 0,4.9539 -3.60291,8.5613 -3.45281,3.44348 -8.40672,3.44348 l -72.0555,0 z"
         id="path4426"
         inkscape:connector-curvature="0" />
      <path
         d="m 946.662,949.65101 q -12.29462,-4.58248 -17.15776,-9.59032 -9.5933,-9.46349 -9.5933,-22.83359 0,-13.37346 9.99753,-23.36802 19.45565,-19.86344 50.7997,-19.86344 33.91203,0 58.09393,27.15909 2.1621,2.56262 2.028,6.35377 0,4.45001 -3.2429,7.6947 -3.1071,3.11247 -7.5655,3.11247 -4.4586,0 -7.1585,-2.84018 -2.706,-2.84077 -3.9214,-4.05333 -15.8061,-15.81045 -38.23363,-15.81045 -22.42694,0 -35.80273,14.05928 -3.24233,3.91425 -3.24233,9.31876 0.40428,6.34915 6.62051,8.64101 l 66.47098,22.02025 q 12.294,4.59949 17.1591,9.59781 9.5918,9.45941 9.5918,22.8275 0,13.3827 -9.998,23.38188 -19.455,19.856 -50.79933,19.856 -34.04617,0 -58.09501,-27.14918 -2.02588,-2.8438 -2.02588,-6.3557 0,-4.4577 3.10689,-7.5632 3.24282,-3.2503 7.70021,-3.2503 4.45909,0 7.16127,2.8407 2.70218,2.8449 3.91747,4.0473 15.80811,15.81108 38.23505,15.81108 22.42753,0 35.80343,-14.04238 3.2416,-3.9137 3.2416,-9.3267 -0.4043,-6.3495 -6.6197,-8.65576 L 946.662,949.65101 Z"
         style="font-style:normal;font-variant:normal;font-weight:normal;font-stretch:normal;font-family:Comfortaa;-inkscape-font-specification:Comfortaa;fill:#006700;fill-opacity:1;stroke:none;stroke-opacity:1"
         id="path4428"
         inkscape:connector-curvature="0" />
    </g>
  </g>
</svg>
