<?xml version="1.0" encoding="UTF-8" standalone="no"?>
<!--
SPDX-FileCopyrightText: 2023 The eminus developers
SPDX-License-Identifier: Apache-2.0
-->
<!-- Created with Inkscape (http://www.inkscape.org/) -->

<svg
   xmlns:dc="http://purl.org/dc/elements/1.1/"
   xmlns:cc="http://creativecommons.org/ns#"
   xmlns:rdf="http://www.w3.org/1999/02/22-rdf-syntax-ns#"
   xmlns:svg="http://www.w3.org/2000/svg"
   xmlns="http://www.w3.org/2000/svg"
   xmlns:sodipodi="http://sodipodi.sourceforge.net/DTD/sodipodi-0.dtd"
   xmlns:inkscape="http://www.inkscape.org/namespaces/inkscape"
   sodipodi:docname="eminus_small.svg"
   width="83mm"
   height="83mm"
   viewBox="0 0 294.09466 294.09459"
   id="svg2"
   version="1.1"
   inkscape:version="0.91 r13725">
  <sodipodi:namedview
     id="base"
     pagecolor="#ffffff"
     bordercolor="#666666"
     borderopacity="1.0"
     inkscape:pageopacity="0.0"
     inkscape:pageshadow="2"
     inkscape:zoom="0.3535534"
     inkscape:cx="33.633743"
     inkscape:cy="221.16974"
     inkscape:document-units="px"
     inkscape:current-layer="text4411"
     showgrid="false"
     showguides="true"
     inkscape:window-width="1301"
     inkscape:window-height="744"
     inkscape:window-x="65"
     inkscape:window-y="24"
     inkscape:window-maximized="1"
     width="51mm" />
  <defs
     id="defs4" />
  <metadata
     id="metadata7">
    <rdf:RDF>
      <cc:Work
         rdf:about="">
        <dc:format>image/svg+xml</dc:format>
        <dc:type
           rdf:resource="http://purl.org/dc/dcmitype/StillImage" />
        <dc:title></dc:title>
      </cc:Work>
    </rdf:RDF>
  </metadata>
  <g
     inkscape:label="Layer 1"
     inkscape:groupmode="layer"
     id="layer1"
     transform="translate(0,-758.26771)">
    <g
       style="font-style:normal;font-weight:normal;font-size:50px;line-height:125%;font-family:sans-serif;letter-spacing:0px;word-spacing:0px;fill:#000000;fill-opacity:1;stroke:none;stroke-width:1px;stroke-linecap:butt;stroke-linejoin:miter;stroke-opacity:1"
       id="text4411">
      <g
         style="font-style:normal;font-variant:normal;font-weight:300;font-stretch:normal;font-size:80px;line-height:125%;font-family:Comfortaa;-inkscape-font-specification:'Comfortaa Light';letter-spacing:0px;word-spacing:0px;fill:#59c859;fill-opacity:1;stroke:none;stroke-width:1px;stroke-linecap:butt;stroke-linejoin:miter;stroke-opacity:1"
         id="text4152"
         transform="matrix(6.194812,0,0,6.9479213,-957.31357,-2892.2128)">
        <path
           style="fill:#59c859;fill-opacity:1"
           d="m 154.55092,551.75442 c 0,-6.44902 2.75317,-11.02845 7.93215,-15.58759 5.20108,-4.57859 11.46456,-6.86791 18.79039,-6.86791 6.30772,0 11.91826,1.77299 16.83167,5.31898 0.39838,0.3507 0.59757,0.77934 0.59757,1.28592 0,0.48707 -0.1991,0.90597 -0.59757,1.25669 -0.39839,0.35068 -0.87422,0.52604 -1.42753,0.52604 -0.57545,0 -1.13982,-0.23381 -1.69314,-0.70141 -3.82888,-2.72767 -8.39924,-4.09153 -13.711,-4.09153 -6.19707,0 -15.51738,1.99704 -19.9217,5.87425 -4.38222,3.85772 -6.80084,7.53119 -6.80084,12.98656"
           id="path4157"
           inkscape:connector-curvature="0"
           sodipodi:nodetypes="csscscscssc" />
      </g>
      <path
         d="m 219.90499,929.23841 q -3.30226,-17.25928 -16.51301,-30.47344 -17.56382,-17.5613 -42.48326,-17.5613 -24.91918,0 -42.48306,17.5613 -13.21029,13.21416 -16.51287,30.47344 l 117.9922,0 z m -12.76011,55.25181 q 4.9539,0 8.4067,3.5992 3.60272,3.4537 3.60272,8.4101 0,4.94208 -3.45259,8.55018 -23.26814,20.2645 -54.79299,20.2645 -34.82713,0 -59.44633,-24.6207 -24.619264,-24.61694 -24.619264,-59.4452 0,-34.82277 24.619264,-59.44658 24.6192,-24.61638 59.44633,-24.61638 34.82741,0 59.44673,24.61638 24.6191,24.62381 24.6191,59.44658 0,4.92878 -3.60277,8.55249 -3.45271,3.45785 -8.40697,3.45785 l -131.05202,0 q 3.30258,17.26189 16.51287,30.46878 17.56388,17.57548 42.48306,17.57548 22.5176,0 38.73014,-14.27118 3.30287,-2.5415 7.50602,-2.5415 z"
         style="font-style:normal;font-variant:normal;font-weight:normal;font-stretch:normal;font-family:Comfortaa;-inkscape-font-specification:Comfortaa;fill:#1a962b;fill-opacity:1;stroke:none;stroke-opacity:1"
         id="path4418"
         inkscape:connector-curvature="0" />
      <path
         style="font-style:normal;font-variant:normal;font-weight:normal;font-stretch:normal;font-family:Comfortaa;-inkscape-font-specification:Comfortaa;fill:#006700;fill-opacity:1;stroke:none;stroke-opacity:1"
         d="m 208.94659,845.46044 q -4.95359,0 -8.55644,-3.44348 -3.45279,-3.6074 -3.45279,-8.5613 0,-4.95933 3.45279,-8.40894 3.60285,-3.60331 8.55644,-3.60331 l 72.0555,0 q 4.95391,0 8.40672,3.60331 3.60291,3.44961 3.60291,8.40894 0,4.9539 -3.60291,8.5613 -3.45281,3.44348 -8.40672,3.44348 l -72.0555,0 z"
         id="path4426"
         inkscape:connector-curvature="0" />
    </g>
  </g>
</svg>
