<?xml version="1.0" encoding="UTF-8" standalone="no"?>
<!--
SPDX-FileCopyrightText: 2023 The eminus developers
SPDX-License-Identifier: Apache-2.0
-->
<!-- Created with Inkscape (http://www.inkscape.org/) -->

<svg
   sodipodi:docname="eminus_dark.svg"
   width="293mm"
   height="83mm"
   viewBox="0 0 1038.1895 294.09459"
   id="svg2"
   version="1.1"
   inkscape:version="1.1.2 (0a00cf5339, 2022-02-04)"
   xmlns:inkscape="http://www.inkscape.org/namespaces/inkscape"
   xmlns:sodipodi="http://sodipodi.sourceforge.net/DTD/sodipodi-0.dtd"
   xmlns="http://www.w3.org/2000/svg"
   xmlns:svg="http://www.w3.org/2000/svg"
   xmlns:rdf="http://www.w3.org/1999/02/22-rdf-syntax-ns#"
   xmlns:cc="http://creativecommons.org/ns#"
   xmlns:dc="http://purl.org/dc/elements/1.1/">
  <sodipodi:namedview
     id="base"
     pagecolor="#ffffff"
     bordercolor="#666666"
     borderopacity="1.0"
     inkscape:pageopacity="0.0"
     inkscape:pageshadow="2"
     inkscape:zoom="0.35355339"
     inkscape:cx="813.1728"
     inkscape:cy="60.811183"
     inkscape:document-units="px"
     inkscape:current-layer="text4411"
     showgrid="false"
     showguides="true"
     inkscape:window-width="1846"
     inkscape:window-height="1016"
     inkscape:window-x="74"
     inkscape:window-y="27"
     inkscape:window-maximized="1"
     width="297.5mm"
     inkscape:pagecheckerboard="0"
     units="mm" />
  <defs
     id="defs4" />
  <metadata
     id="metadata7">
    <rdf:RDF>
      <cc:Work
         rdf:about="">
        <dc:format>image/svg+xml</dc:format>
        <dc:type
           rdf:resource="http://purl.org/dc/dcmitype/StillImage" />
      </cc:Work>
    </rdf:RDF>
  </metadata>
  <g
     inkscape:label="Layer 1"
     inkscape:groupmode="layer"
     id="layer1"
     transform="translate(0,-758.26771)">
    <g
       style="font-style:normal;font-weight:normal;font-size:50px;line-height:125%;font-family:sans-serif;letter-spacing:0px;word-spacing:0px;fill:#000000;fill-opacity:1;stroke:none;stroke-width:1px;stroke-linecap:butt;stroke-linejoin:miter;stroke-opacity:1"
       id="text4411">
      <g
         style="font-style:normal;font-variant:normal;font-weight:300;font-stretch:normal;font-size:80px;line-height:125%;font-family:Comfortaa;-inkscape-font-specification:'Comfortaa Light';letter-spacing:0px;word-spacing:0px;fill:#d2ffd3;fill-opacity:1;stroke:none;stroke-width:1px;stroke-linecap:butt;stroke-linejoin:miter;stroke-opacity:1"
         id="text4152"
         transform="matrix(6.194812,0,0,6.9479213,-957.31357,-2892.2128)">
        <path
           style="fill:#d2ffd3;fill-opacity:1"
           d="m 154.55092,551.75442 c 0,-6.44902 2.75317,-11.02845 7.93215,-15.58759 5.20108,-4.57859 11.46456,-6.86791 18.79039,-6.86791 6.30772,0 11.91826,1.77299 16.83167,5.31898 0.39838,0.3507 0.59757,0.77934 0.59757,1.28592 0,0.48707 -0.1991,0.90597 -0.59757,1.25669 -0.39839,0.35068 -0.87422,0.52604 -1.42753,0.52604 -0.57545,0 -1.13982,-0.23381 -1.69314,-0.70141 -3.82888,-2.72767 -8.39924,-4.09153 -13.711,-4.09153 -6.19707,0 -15.51738,1.99704 -19.9217,5.87425 -4.38222,3.85772 -6.80084,7.53119 -6.80084,12.98656"
           id="path4157"
           inkscape:connector-curvature="0"
           sodipodi:nodetypes="csscscscssc" />
      </g>
      <path
         d="m 219.90499,929.23841 q -3.30226,-17.25928 -16.51301,-30.47344 -17.56382,-17.5613 -42.48326,-17.5613 -24.91918,0 -42.48306,17.5613 -13.21029,13.21416 -16.51287,30.47344 z m -12.76011,55.25181 q 4.9539,0 8.4067,3.5992 3.60272,3.4537 3.60272,8.4101 0,4.94208 -3.45259,8.55018 -23.26814,20.2645 -54.79299,20.2645 -34.82713,0 -59.44633,-24.6207 -24.619264,-24.61694 -24.619264,-59.4452 0,-34.82277 24.619264,-59.44658 24.6192,-24.61638 59.44633,-24.61638 34.82741,0 59.44673,24.61638 24.6191,24.62381 24.6191,59.44658 0,4.92878 -3.60277,8.55249 -3.45271,3.45785 -8.40697,3.45785 H 101.91279 q 3.30258,17.26189 16.51287,30.46878 17.56388,17.57548 42.48306,17.57548 22.5176,0 38.73014,-14.27118 3.30287,-2.5415 7.50602,-2.5415 z"
         style="font-style:normal;font-variant:normal;font-weight:normal;font-stretch:normal;font-family:Comfortaa;-inkscape-font-specification:Comfortaa;fill:#a0dba2;fill-opacity:1;stroke:none;stroke-opacity:1"
         id="path4418"
         inkscape:connector-curvature="0" />
      <path
         style="font-style:normal;font-variant:normal;font-weight:normal;font-stretch:normal;font-family:Comfortaa;-inkscape-font-specification:Comfortaa;fill:#70a973;fill-opacity:1;stroke:none;stroke-opacity:1"
         d="m 208.94659,845.46044 q -4.95359,0 -8.55644,-3.44348 -3.45279,-3.6074 -3.45279,-8.5613 0,-4.95933 3.45279,-8.40894 3.60285,-3.60331 8.55644,-3.60331 h 72.0555 q 4.95391,0 8.40672,3.60331 3.60291,3.44961 3.60291,8.40894 0,4.9539 -3.60291,8.5613 -3.45281,3.44348 -8.40672,3.44348 z"
         id="path4426"
         inkscape:connector-curvature="0" />
      <g
         aria-label="minus"
         id="text3529"
         style="font-size:273.75px;font-family:Comfortaa;-inkscape-font-specification:Comfortaa;fill:#70a973;fill-opacity:1;stroke-width:0.9375px"
         transform="translate(0,-56.666204)">
        <path
           d="m 450.70703,930.66178 q 16.15125,0 28.47,7.665 12.5925,7.665 19.43625,21.9 7.1175,13.96125 7.1175,32.57625 v 78.83997 q 0,4.6538 -3.01125,7.665 -2.7375,2.7375 -7.39125,2.7375 -4.65375,0 -7.665,-2.7375 -3.01125,-3.0112 -3.01125,-7.665 v -78.83997 q 0,-19.43625 -10.12875,-30.66 -9.855,-11.4975 -26.00625,-11.4975 -17.24625,0 -27.9225,11.4975 -10.67625,11.4975 -10.4025,30.1125 v 0.5475 78.83997 q 0,4.6538 -3.01125,7.665 -2.7375,2.7375 -7.39125,2.7375 -4.65375,0 -7.665,-2.7375 -3.01125,-3.0112 -3.01125,-7.665 v -78.83997 q 0,-19.43625 -10.12875,-30.66 -9.855,-11.4975 -26.00625,-11.4975 -16.9725,0 -27.9225,11.22375 -10.95,11.22375 -10.95,28.74375 v 81.02997 q 0,4.6538 -3.01125,7.665 -2.7375,2.7375 -7.39125,2.7375 -4.65375,0 -7.665,-2.7375 -3.01125,-3.0112 -3.01125,-7.665 V 942.98053 q 0,-4.65375 3.01125,-7.665 3.01125,-3.01125 7.665,-3.01125 4.65375,0 7.39125,3.01125 3.01125,3.01125 3.01125,7.665 v 6.0225 q 7.665,-8.76 18.0675,-13.41375 10.67625,-4.9275 22.995,-4.9275 15.05625,0 27.10125,6.84375 12.045,6.84375 19.1625,19.1625 7.93875,-12.31875 20.53125,-19.1625 12.86625,-6.84375 28.74375,-6.84375 z"
           id="path34159"
           style="fill:#70a973;fill-opacity:1" />
        <path
           d="m 548.57369,1082.0455 c -3.1025,0 -5.6575,-1.0037 -7.665,-3.0112 -2.0075,-2.0075 -3.01125,-4.5625 -3.01125,-7.665 V 942.98053 c 0,-3.1025 1.00375,-5.6575 3.01125,-7.665 2.0075,-2.0075 4.5625,-3.01125 7.665,-3.01125 3.1025,0 5.56625,1.00375 7.39125,3.01125 2.0075,2.0075 3.01125,4.5625 3.01125,7.665 v 128.38877 c 0,3.1025 -1.00375,5.6575 -3.01125,7.665 -1.825,2.0075 -4.28875,3.0112 -7.39125,3.0112 z"
           id="path34161"
           sodipodi:nodetypes="sssssscsscs"
           style="fill:#70a973;fill-opacity:1" />
        <path
           d="m 664.78247,930.66178 q 19.43625,0 34.76625,8.2125 15.60375,8.2125 24.36375,24.09 8.76,15.60375 8.76,37.50372 v 71.175 q 0,4.38 -3.01125,7.3913 -3.01125,3.0112 -7.39125,3.0112 -4.65375,0 -7.665,-3.0112 -3.01125,-3.0113 -3.01125,-7.3913 v -71.175 q 0,-24.36372 -13.6875,-36.95622 -13.41375,-12.86625 -35.31375,-12.86625 -13.41375,0 -24.36375,5.20125 -10.67625,5.20125 -16.9725,14.50875 -6.29625,9.03375 -6.29625,20.2575 v 81.02997 q 0,4.6538 -3.01125,7.665 -2.7375,2.7375 -7.39125,2.7375 -4.65375,0 -7.665,-2.7375 -3.01125,-3.0112 -3.01125,-7.665 V 942.98053 q 0,-4.65375 3.01125,-7.665 3.01125,-3.01125 7.665,-3.01125 4.65375,0 7.39125,3.01125 3.01125,3.01125 3.01125,7.665 v 9.3075 q 9.03375,-10.12875 21.9,-15.8775 12.86625,-5.74875 27.9225,-5.74875 z"
           id="path34163"
           style="fill:#70a973;fill-opacity:1" />
        <path
           d="m 885.83754,932.30428 c 3.1025,0 5.6575,1.00375 7.665,3.01125 2.0075,1.825 3.01125,4.28875 3.01125,7.39125 -34.85716,62.96962 7.51374,140.40822 -70.90125,140.98122 -12.9575,0 -24.6375,-2.7375 -35.04,-8.2125 -10.22,-5.475 -18.25,-13.4137 -24.09,-23.8162 -5.84,-10.585 -8.76,-23.1775 -8.76,-37.7775 v -71.17502 c 0,-2.92 1.00375,-5.38375 3.01125,-7.39125 2.0075,-2.0075 4.47125,-3.01125 7.39125,-3.01125 6.16252,0.20873 10.60382,4.91498 10.67625,10.4025 v 71.17502 c 0,16.2425 4.47125,28.6525 13.41375,37.23 9.125,8.395 20.9875,12.5925 35.5875,12.5925 8.9425,0 16.9725,-1.7338 24.09,-5.2013 36.96299,-18.7073 23.77379,-82.42884 23.5425,-115.79622 0,-3.1025 0.9125,-5.56625 2.7375,-7.39125 2.0075,-2.0075 4.5625,-3.01125 7.665,-3.01125 z"
           id="path34165"
           style="fill:#70a973;fill-opacity:1"
           sodipodi:nodetypes="scccccssssssscsccs" />
        <path
           d="m 768.39879,932.30429 c -3.1025,0 -5.6575,1.00375 -7.665,3.01125 -2.0075,1.825 -3.01125,4.28875 -3.01125,7.39125 34.85715,62.96961 -7.51373,140.40821 70.90125,140.98121 12.9575,0 24.6375,-2.7375 35.04,-8.2125 10.22,-5.475 18.25,-13.4137 24.09,-23.8162 5.84,-10.585 8.76,-23.1775 8.76,-37.7775 v -71.17501 c 0,-2.92 -1.00375,-5.38375 -3.01125,-7.39125 -2.0075,-2.0075 -4.47125,-3.01125 -7.39125,-3.01125 -6.16252,0.20873 -10.60382,4.91498 -10.67625,10.4025 v 71.17501 c 0,16.2425 -4.47125,28.6525 -13.41375,37.23 -9.125,8.395 -20.9875,12.5925 -35.5875,12.5925 -8.9425,0 -16.9725,-1.7338 -24.09,-5.2013 -36.96299,-18.7073 -23.77379,-82.42883 -23.5425,-115.79621 0,-3.1025 -0.9125,-5.56625 -2.7375,-7.39125 -2.0075,-2.0075 -4.5625,-3.01125 -7.665,-3.01125 z"
           id="path34165-3"
           style="font-style:normal;font-weight:normal;font-size:273.75px;line-height:125%;font-family:Comfortaa;-inkscape-font-specification:Comfortaa;letter-spacing:0px;word-spacing:0px;fill:#70a973;fill-opacity:1;stroke:none;stroke-width:0.9375px;stroke-linecap:butt;stroke-linejoin:miter;stroke-opacity:1"
           sodipodi:nodetypes="scccccsssccscscccs" />
        <path
           d="m 979.32422,1083.4143 q -16.9725,0 -32.5763,-5.7488 -15.6037,-5.7487 -25.18499,-16.1512 -2.7375,-3.285 -2.7375,-6.2963 0,-4.6537 4.38,-8.2125 3.28499,-2.4637 6.84379,-2.4637 4.6537,0 7.9387,3.8325 6.57,7.665 17.2463,11.7712 10.95,4.1063 24.09,4.1063 19.16244,0 28.74368,-6.57 9.5813,-6.57 9.855,-17.2463 0,-9.855 -9.5812,-16.425 -9.58134,-6.57 -30.38628,-9.855 -26.8275,-4.38 -40.2412,-15.05622 -13.14004,-10.95 -13.14004,-26.28 0,-19.98375 15.33004,-30.93375 15.6037,-10.95 38.8725,-10.95 18.06744,0 31.48118,6.29625 13.4138,6.0225 21.6263,16.9725 2.19,3.55875 2.19,6.29625 0,4.65375 -4.38,7.39125 -1.9163,1.36875 -5.2013,1.36875 -5.7487,0 -9.5812,-4.10625 -13.4138,-15.33 -36.68248,-15.33 -15.0563,0 -24.09,6.29625 -9.0338,6.0225 -9.0338,15.33 0,9.855 8.4863,15.8775 8.4862,5.74875 30.1125,9.3075 29.29118,4.92747 41.88368,16.15127 12.5925,10.95 12.5925,27.375 0,12.5925 -7.665,22.4475 -7.3912,9.855 -20.805,15.33 -13.41374,5.475 -30.38618,5.475 z"
           id="path34167"
           style="fill:#70a973;fill-opacity:1" />
      </g>
    </g>
  </g>
</svg>
