<?xml version="1.0" encoding="UTF-8" standalone="no"?>
<!-- Created with Inkscape (http://www.inkscape.org/) -->

<svg
   xmlns:dc="http://purl.org/dc/elements/1.1/"
   xmlns:cc="http://creativecommons.org/ns#"
   xmlns:rdf="http://www.w3.org/1999/02/22-rdf-syntax-ns#"
   xmlns:svg="http://www.w3.org/2000/svg"
   xmlns="http://www.w3.org/2000/svg"
   xmlns:sodipodi="http://sodipodi.sourceforge.net/DTD/sodipodi-0.dtd"
   xmlns:inkscape="http://www.inkscape.org/namespaces/inkscape"
   id="svg2"
   version="1.1"
   inkscape:version="0.91 r13725"
   xml:space="preserve"
   width="1037.4"
   height="527.39996"
   viewBox="0 0 1037.4 527.39996"
   sodipodi:docname="eminus-features.svg"><metadata
     id="metadata8"><rdf:RDF><cc:Work
         rdf:about=""><dc:format>image/svg+xml</dc:format><dc:type
           rdf:resource="http://purl.org/dc/dcmitype/StillImage" /><dc:title></dc:title></cc:Work></rdf:RDF></metadata><defs
     id="defs6"><clipPath
       clipPathUnits="userSpaceOnUse"
       id="clipPath16"><path
         d="m 0,0 3458.3333,0 0,1751.6233 L 0,1751.6233 0,0 Z"
         id="path18"
         inkscape:connector-curvature="0"
         style="clip-rule:evenodd" /></clipPath></defs><sodipodi:namedview
     pagecolor="#ffffff"
     bordercolor="#666666"
     borderopacity="1"
     objecttolerance="10"
     gridtolerance="10"
     guidetolerance="10"
     inkscape:pageopacity="0"
     inkscape:pageshadow="2"
     inkscape:window-width="666"
     inkscape:window-height="480"
     id="namedview4"
     showgrid="false"
     inkscape:zoom="0.38075958"
     inkscape:cx="518.70001"
     inkscape:cy="263.69998"
     inkscape:window-x="65"
     inkscape:window-y="24"
     inkscape:window-maximized="0"
     inkscape:current-layer="g10" /><g
     id="g10"
     inkscape:groupmode="layer"
     inkscape:label="eminus-features"
     transform="matrix(0.29999999,0,0,0.29999999,0,5e-6)"><g
       id="g12"><g
         id="g14"
         clip-path="url(#clipPath16)"><g
           id="g20"
           transform="matrix(2.9942279,0,0,2.9942279,1.4971139,1.4971139)"><path
             d="m 577,272 0,-77.89999"
             style="fill:none;stroke:#7f7f7f;stroke-width:1;stroke-linecap:butt;stroke-linejoin:miter;stroke-miterlimit:10;stroke-dasharray:none;stroke-opacity:1"
             id="path22"
             inkscape:connector-curvature="0" /><path
             d="m 577,187.35001 4.5,9 -4.5,-2.25 -4.5,2.25 4.5,-9 z"
             style="fill:#7f7f7f;fill-opacity:1;fill-rule:nonzero;stroke:none"
             id="path24"
             inkscape:connector-curvature="0" /><path
             d="m 577,187.35001 4.5,9 -4.5,-2.25 -4.5,2.25 4.5,-9 z"
             style="fill:none;stroke:#7f7f7f;stroke-width:1;stroke-linecap:butt;stroke-linejoin:miter;stroke-miterlimit:10;stroke-dasharray:none;stroke-opacity:1"
             id="path26"
             inkscape:connector-curvature="0" /><path
             d="m 662,317 127.90002,0.34"
             style="fill:none;stroke:#7f7f7f;stroke-width:1;stroke-linecap:butt;stroke-linejoin:miter;stroke-miterlimit:10;stroke-dasharray:none;stroke-opacity:1"
             id="path28"
             inkscape:connector-curvature="0" /><path
             d="M 796.65002,317.35999 787.63,321.84 l 2.27002,-4.5 -2.24005,-4.5 8.99005,4.51999 z"
             style="fill:#7f7f7f;fill-opacity:1;fill-rule:nonzero;stroke:none"
             id="path30"
             inkscape:connector-curvature="0" /><path
             d="M 796.65002,317.35999 787.63,321.84 l 2.27002,-4.5 -2.24005,-4.5 8.99005,4.51999 z"
             style="fill:none;stroke:#7f7f7f;stroke-width:1;stroke-linecap:butt;stroke-linejoin:miter;stroke-miterlimit:10;stroke-dasharray:none;stroke-opacity:1"
             id="path32"
             inkscape:connector-curvature="0" /><path
             d="m 614.65002,357.34 66.81995,37.70001"
             style="fill:none;stroke:#7f7f7f;stroke-width:1;stroke-linecap:butt;stroke-linejoin:miter;stroke-miterlimit:10;stroke-dasharray:none;stroke-opacity:1"
             id="path34"
             inkscape:connector-curvature="0" /><path
             d="m 687.34998,398.35001 -10.04999,-0.5 4.16998,-2.81 0.25,-5.03 5.63001,8.34 z"
             style="fill:#7f7f7f;fill-opacity:1;fill-rule:nonzero;stroke:none"
             id="path36"
             inkscape:connector-curvature="0" /><path
             d="m 687.34998,398.35001 -10.04999,-0.5 4.16998,-2.81 0.25,-5.03 5.63001,8.34 z"
             style="fill:none;stroke:#7f7f7f;stroke-width:1;stroke-linecap:butt;stroke-linejoin:miter;stroke-miterlimit:10;stroke-dasharray:none;stroke-opacity:1"
             id="path38"
             inkscape:connector-curvature="0" /><path
             d="m 492,317 -127.89999,0.34"
             style="fill:none;stroke:#7f7f7f;stroke-width:1;stroke-linecap:butt;stroke-linejoin:miter;stroke-miterlimit:10;stroke-dasharray:none;stroke-opacity:1"
             id="path40"
             inkscape:connector-curvature="0" /><path
             d="M 357.35001,317.35999 366.34,312.84 l -2.23999,4.5 2.26999,4.5 -9.01999,-4.48001 z"
             style="fill:#7f7f7f;fill-opacity:1;fill-rule:nonzero;stroke:none"
             id="path42"
             inkscape:connector-curvature="0" /><path
             d="M 357.35001,317.35999 366.34,312.84 l -2.23999,4.5 2.26999,4.5 -9.01999,-4.48001 z"
             style="fill:none;stroke:#7f7f7f;stroke-width:1;stroke-linecap:butt;stroke-linejoin:miter;stroke-miterlimit:10;stroke-dasharray:none;stroke-opacity:1"
             id="path44"
             inkscape:connector-curvature="0" /><path
             d="m 662,317 c 0,1.47379 -0.13641,2.94406 -0.4093,4.41077 -0.27289,1.4667 -0.68085,2.92279 -1.224,4.36828 -0.54303,1.4455 -1.21863,2.87342 -2.0268,4.28372 -0.8081,1.41034 -1.74481,2.79633 -2.81018,4.15793 -1.0653,1.36164 -2.25415,2.69232 -3.56646,3.9921 -1.31232,1.29977 -2.74176,2.56238 -4.28839,3.78781 -1.54657,1.22543 -3.20295,2.40781 -4.969,3.54706 -1.76605,1.13928 -3.6333,2.22998 -5.60181,3.27212 -1.96844,1.04215 -4.02862,2.0307 -6.18054,2.96567 -2.15197,0.93497 -4.38531,1.81186 -6.70007,2.63065 -2.3147,0.81881 -4.69959,1.57559 -7.15472,2.27032 -2.45514,0.69473 -4.96875,1.3241 -7.54071,1.88809 -2.57197,0.56403 -5.18995,1.05994 -7.85389,1.48777 -2.664,0.42782 -5.36114,0.78549 -8.09149,1.07299 -2.73035,0.28754 -5.48077,0.50354 -8.25122,0.64801 C 582.56097,361.92776 579.78387,362 577,362 c -2.78381,0 -5.56097,-0.0722 -8.33148,-0.21671 -2.77045,-0.14447 -5.52088,-0.36047 -8.25128,-0.64804 -2.73029,-0.2875 -5.42749,-0.64514 -8.0915,-1.07296 -2.664,-0.42783 -5.28198,-0.92374 -7.85394,-1.48777 -2.57196,-0.56399 -5.08545,-1.19336 -7.54059,-1.88809 -2.45514,-0.69473 -4.84008,-1.45151 -7.15478,-2.27032 -2.31464,-0.81879 -4.54798,-1.69568 -6.69989,-2.63065 -2.15192,-0.93497 -4.21216,-1.92352 -6.18067,-2.96567 -1.96844,-1.04214 -3.83569,-2.13284 -5.60177,-3.27212 -1.76605,-1.13925 -3.42243,-2.32163 -4.96909,-3.54706 -1.5466,-1.22543 -2.97604,-2.48804 -4.28836,-3.78781 -1.31228,-1.29978 -2.50113,-2.63046 -3.56647,-3.9921 -1.06533,-1.3616 -2.00204,-2.74759 -2.81018,-4.15793 -0.80807,-1.4103 -1.48367,-2.83822 -2.02679,-4.28372 -0.54309,-1.44549 -0.95105,-2.90158 -1.22391,-4.36828 C 492.13644,319.94406 492.00003,318.47379 492,317 c 3e-5,-1.47379 0.13644,-2.94403 0.4093,-4.41074 0.27286,-1.46673 0.68082,-2.92285 1.22391,-4.36834 0.54312,-1.44547 1.21872,-2.87339 2.02682,-4.28376 0.80811,-1.41034 1.74482,-2.79632 2.81015,-4.15795 1.06534,-1.36161 2.25415,-2.6923 3.56644,-3.9921 1.31235,-1.29977 2.74179,-2.56238 4.28839,-3.78781 1.54666,-1.2254 3.20304,-2.40775 4.96909,-3.547 1.76608,-1.13925 3.63333,-2.22998 5.60177,-3.27212 1.96851,-1.04212 4.02875,-2.03067 6.18067,-2.96567 2.15191,-0.93497 4.38525,-1.81186 6.69989,-2.63068 2.3147,-0.81878 4.69964,-1.57556 7.15478,-2.27029 2.45514,-0.69474 4.96863,-1.32413 7.54059,-1.88816 2.57196,-0.56399 5.18994,-1.0599 7.85394,-1.48773 2.66401,-0.42779 5.36121,-0.78546 8.0915,-1.07303 2.7304,-0.2875 5.48083,-0.50347 8.25128,-0.64791 2.77051,-0.14444 5.54767,-0.21668 8.33148,-0.21671 2.78387,3e-5 5.56097,0.0723 8.33142,0.21671 2.77045,0.14444 5.52087,0.36041 8.25122,0.64791 2.73035,0.28757 5.42749,0.64524 8.09149,1.07303 2.66394,0.42783 5.28192,0.92374 7.85389,1.48773 2.57196,0.56403 5.08551,1.19342 7.54064,1.88816 2.45514,0.69473 4.84009,1.45151 7.15479,2.27029 2.31476,0.81882 4.5481,1.69571 6.70007,2.63068 2.15192,0.935 4.2121,1.92355 6.18054,2.96567 1.96851,1.04214 3.83576,2.13287 5.60181,3.27212 1.76605,1.13925 3.42243,2.3216 4.969,3.547 1.54663,1.22543 2.97607,2.48804 4.28839,3.78781 1.31231,1.2998 2.50116,2.63049 3.56646,3.9921 1.06537,1.36163 2.00208,2.74761 2.81018,4.15798 0.80817,1.41034 1.48377,2.83826 2.0268,4.28373 0.54315,1.44549 0.95111,2.90161 1.224,4.36834 C 661.86359,314.05597 662,315.52621 662,317 Z"
             style="fill:#7f7f7f;fill-opacity:1;fill-rule:nonzero;stroke:none"
             id="path46"
             inkscape:connector-curvature="0" /></g><g
           id="g48"
           transform="scale(2.9942279,2.9942279)"><text
             transform="translate(513.96875,330)"
             style="font-variant:normal;font-weight:bold;font-size:36px;font-family:'Liberation Sans';-inkscape-font-specification:LiberationSans-Bold;writing-mode:lr-tb;fill:#ffffff;fill-opacity:1;fill-rule:nonzero;stroke:none"
             id="text50"><tspan
               x="0 20.021484 52.03125 62.033203 84.023438 106.01367"
               y="0"
               sodipodi:role="line"
               id="tspan52">eminus</tspan></text>
</g><g
           id="g54"
           transform="matrix(2.9942279,0,0,2.9942279,1.4971139,1.4971139)"><path
             d="m 200,317.5 -35.89999,0"
             style="fill:none;stroke:#1f77b4;stroke-width:1;stroke-linecap:butt;stroke-linejoin:miter;stroke-miterlimit:10;stroke-dasharray:none;stroke-opacity:1"
             id="path56"
             inkscape:connector-curvature="0" /><path
             d="m 157.35001,317.5 9,-4.5 -2.25,4.5 2.25,4.5 -9,-4.5 z"
             style="fill:#1f77b4;fill-opacity:1;fill-rule:nonzero;stroke:none"
             id="path58"
             inkscape:connector-curvature="0" /><path
             d="m 157.35001,317.5 9,-4.5 -2.25,4.5 2.25,4.5 -9,-4.5 z"
             style="fill:none;stroke:#1f77b4;stroke-width:1;stroke-linecap:butt;stroke-linejoin:miter;stroke-miterlimit:10;stroke-dasharray:none;stroke-opacity:1"
             id="path60"
             inkscape:connector-curvature="0" /><path
             d="m 206.2,287.5 141.59999,0 c 0.55691,0 1.09265,0.10657 1.60721,0.3197 0.51455,0.21311 0.96878,0.5166 1.36261,0.91043 0.39383,0.39383 0.69729,0.84803 0.91046,1.36261 0.21313,0.51453 0.3197,1.0503 0.31973,1.60727 l 0,51.59998 c -3e-5,0.55691 -0.1066,1.09268 -0.31973,1.60727 -0.21317,0.51452 -0.51663,0.96872 -0.91046,1.36258 -0.39383,0.39383 -0.84806,0.69729 -1.36261,0.91043 -0.51456,0.2131 -1.0503,0.3197 -1.60721,0.31973 L 206.2,347.5 c -0.55696,-3e-5 -1.09273,-0.10663 -1.60729,-0.31973 -0.51457,-0.21314 -0.96875,-0.5166 -1.36256,-0.91043 -0.39385,-0.39386 -0.69733,-0.84806 -0.91046,-1.36258 -0.21314,-0.51459 -0.31971,-1.05036 -0.31969,-1.60727 l 0,-51.59998 c -2e-5,-0.55697 0.10655,-1.09274 0.31969,-1.6073 0.21313,-0.51455 0.51661,-0.96875 0.91046,-1.36258 0.39381,-0.39383 0.84799,-0.69732 1.36256,-0.91043 0.51456,-0.21313 1.05033,-0.3197 1.60729,-0.3197 z"
             style="fill:#1f77b4;fill-opacity:1;fill-rule:nonzero;stroke:none"
             id="path62"
             inkscape:connector-curvature="0" /></g><g
           id="g64"
           transform="scale(2.9942279,2.9942279)"><text
             transform="translate(244.96875,327)"
             style="font-variant:normal;font-weight:bold;font-size:24px;font-family:'Liberation Sans';-inkscape-font-specification:LiberationSans-Bold;writing-mode:lr-tb;fill:#ffffff;fill-opacity:1;fill-rule:nonzero;stroke:none"
             id="text66"><tspan
               x="0 17.332031 30.679688 44.027344 50.695312"
               y="0"
               sodipodi:role="line"
               id="tspan68">Basis</tspan></text>
</g><g
           id="g70"
           transform="matrix(2.9942279,0,0,2.9942279,1.4971139,1.4971139)"><path
             d="M 6.1999998,287.5 147.8,287.5 c 0.55695,0 1.0927,0.10657 1.60726,0.3197 0.51455,0.21311 0.96875,0.5166 1.36259,0.91043 0.39382,0.39383 0.69728,0.84803 0.91043,1.36261 0.21314,0.51453 0.3197,1.0503 0.31972,1.60727 l 0,51.59998 c -2e-5,0.55691 -0.10658,1.09268 -0.31973,1.60727 -0.21314,0.51452 -0.51662,0.96872 -0.91043,1.36258 -0.39383,0.39383 -0.84803,0.69729 -1.36258,0.91043 -0.51456,0.2131 -1.05031,0.3197 -1.60726,0.31973 l -141.6000002,0 c -0.5569549,-3e-5 -1.0927114,-0.10663 -1.6072707,-0.31973 -0.5145588,-0.21314 -0.9687514,-0.5166 -1.3625777,-0.91043 C 2.8363249,345.87598 2.5328431,345.42178 2.3197057,344.90726 2.1065683,344.39267 1.9999999,343.8569 2,343.29999 l 0,-51.59998 c -1e-7,-0.55697 0.1065683,-1.09274 0.3197057,-1.6073 0.2131374,-0.51455 0.5166192,-0.96875 0.9104457,-1.36258 0.3938263,-0.39383 0.8480189,-0.69732 1.3625777,-0.91043 C 5.1072884,287.60657 5.6430449,287.5 6.1999998,287.5 Z"
             style="fill:#5fa6e6;fill-opacity:1;fill-rule:nonzero;stroke:none"
             id="path72"
             inkscape:connector-curvature="0" /></g><g
           id="g74"
           transform="scale(2.9942279,2.9942279)"><text
             transform="translate(44.984375,313)"
             style="font-variant:normal;font-weight:bold;font-size:24px;font-family:'Liberation Sans';-inkscape-font-specification:LiberationSans-Bold;writing-mode:lr-tb;fill:#ffffff;fill-opacity:1;fill-rule:nonzero;stroke:none"
             id="text76"><tspan
               x="0 16.007812 22.675781 36.023438 50.683594"
               y="0"
               sodipodi:role="line"
               id="tspan78">Plane</tspan></text>
<text
             transform="translate(40.96875,341)"
             style="font-variant:normal;font-weight:bold;font-size:24px;font-family:'Liberation Sans';-inkscape-font-specification:LiberationSans-Bold;writing-mode:lr-tb;fill:#ffffff;fill-opacity:1;fill-rule:nonzero;stroke:none"
             id="text80"><tspan
               x="0 18.667969 32.015625 45.363281 58.710938"
               y="0"
               sodipodi:role="line"
               id="tspan82">waves</tspan></text>
</g><g
           id="g84"
           transform="matrix(2.9942279,0,0,2.9942279,1.4971139,1.4971139)"><path
             d="m 680.40997,464 -65.79998,31.62"
             style="fill:none;stroke:#8c564b;stroke-width:1;stroke-linecap:butt;stroke-linejoin:miter;stroke-miterlimit:10;stroke-dasharray:none;stroke-opacity:1"
             id="path86"
             inkscape:connector-curvature="0" /><path
             d="M 608.52002,498.54999 614.69,490.59 l -0.08,5.03 3.97003,3.08001 -10.06,-0.15002 z"
             style="fill:#8c564b;fill-opacity:1;fill-rule:nonzero;stroke:none"
             id="path88"
             inkscape:connector-curvature="0" /><path
             d="M 608.52002,498.54999 614.69,490.59 l -0.08,5.03 3.97003,3.08001 -10.06,-0.15002 z"
             style="fill:none;stroke:#8c564b;stroke-width:1;stroke-linecap:butt;stroke-linejoin:miter;stroke-miterlimit:10;stroke-dasharray:none;stroke-opacity:1"
             id="path90"
             inkscape:connector-curvature="0" /><path
             d="m 747,464 0,45.89999"
             style="fill:none;stroke:#8c564b;stroke-width:1;stroke-linecap:butt;stroke-linejoin:miter;stroke-miterlimit:10;stroke-dasharray:none;stroke-opacity:1"
             id="path92"
             inkscape:connector-curvature="0" /><path
             d="m 747,516.65002 -4.5,-9.00003 4.5,2.25 4.5,-2.25 -4.5,9.00003 z"
             style="fill:#8c564b;fill-opacity:1;fill-rule:nonzero;stroke:none"
             id="path94"
             inkscape:connector-curvature="0" /><path
             d="m 747,516.65002 -4.5,-9.00003 4.5,2.25 4.5,-2.25 -4.5,9.00003 z"
             style="fill:none;stroke:#8c564b;stroke-width:1;stroke-linecap:butt;stroke-linejoin:miter;stroke-miterlimit:10;stroke-dasharray:none;stroke-opacity:1"
             id="path96"
             inkscape:connector-curvature="0" /><path
             d="m 813.59003,464 65.79998,31.62"
             style="fill:none;stroke:#8c564b;stroke-width:1;stroke-linecap:butt;stroke-linejoin:miter;stroke-miterlimit:10;stroke-dasharray:none;stroke-opacity:1"
             id="path98"
             inkscape:connector-curvature="0" /><path
             d="m 885.47998,498.54999 -10.06,0.15002 3.97003,-3.08001 -0.08,-5.03 6.16998,7.95999 z"
             style="fill:#8c564b;fill-opacity:1;fill-rule:nonzero;stroke:none"
             id="path100"
             inkscape:connector-curvature="0" /><path
             d="m 885.47998,498.54999 -10.06,0.15002 3.97003,-3.08001 -0.08,-5.03 6.16998,7.95999 z"
             style="fill:none;stroke:#8c564b;stroke-width:1;stroke-linecap:butt;stroke-linejoin:miter;stroke-miterlimit:10;stroke-dasharray:none;stroke-opacity:1"
             id="path102"
             inkscape:connector-curvature="0" /><path
             d="m 676.20001,402 141.59998,0 c 0.55688,0 1.09259,0.10657 1.60718,0.31967 0.51452,0.21317 0.96875,0.51663 1.36261,0.91046 0.39379,0.3938 0.69726,0.848 0.91033,1.36258 0.2132,0.51453 0.31983,1.0503 0.31989,1.6073 l 0,51.59998 c -6e-5,0.55691 -0.10663,1.09265 -0.31982,1.60721 -0.21314,0.51455 -0.51661,0.96878 -0.9104,1.36261 -0.39386,0.39383 -0.84809,0.69729 -1.36261,0.91043 -0.51459,0.21316 -1.0503,0.31973 -1.60718,0.31976 l -141.59998,0 c -0.557,-3e-5 -1.09277,-0.1066 -1.6073,-0.31973 -0.51465,-0.21317 -0.96887,-0.51663 -1.36261,-0.91043 -0.39386,-0.39386 -0.69732,-0.84806 -0.91046,-1.36261 -0.21313,-0.51459 -0.3197,-1.05033 -0.31964,-1.60724 l 0,-51.59998 c -6e-5,-0.557 0.10651,-1.09277 0.31964,-1.60733 0.21314,-0.51455 0.5166,-0.96875 0.91046,-1.36255 0.39374,-0.39383 0.84796,-0.69729 1.36255,-0.91046 0.51459,-0.2131 1.05036,-0.31967 1.60736,-0.31967 z"
             style="fill:#8c564b;fill-opacity:1;fill-rule:nonzero;stroke:none"
             id="path104"
             inkscape:connector-curvature="0" /></g><g
           id="g106"
           transform="scale(2.9942279,2.9942279)"><text
             transform="translate(701.64063,441)"
             style="font-variant:normal;font-weight:bold;font-size:24px;font-family:'Liberation Sans';-inkscape-font-specification:LiberationSans-Bold;writing-mode:lr-tb;fill:#ffffff;fill-opacity:1;fill-rule:nonzero;stroke:none"
             id="text108"><tspan
               x="0 18.667969 28.007812 42.667969 49.335938 57.328125 70.675781 77.34375"
               y="0"
               sodipodi:role="line"
               id="tspan110">Orbitals</tspan></text>
</g><g
           id="g112"
           transform="matrix(2.9942279,0,0,2.9942279,1.4971139,1.4971139)"><path
             d="m 856.20001,502 141.59998,0 c 0.55694,0 1.09265,0.10654 1.60718,0.31964 0.51458,0.21317 0.96873,0.51666 1.36263,0.91049 0.3938,0.3938 0.6972,0.848 0.9104,1.36255 0.2132,0.51456 0.3197,1.05033 0.3198,1.60733 l 0,51.59998 c -10e-5,0.55688 -0.1066,1.09259 -0.3198,1.60718 -0.2132,0.51458 -0.5166,0.96881 -0.9104,1.36267 -0.3939,0.39386 -0.84805,0.69732 -1.36263,0.9104 C 998.89264,561.89343 998.35693,562 997.79999,562 l -141.59998,0 c -0.557,0 -1.09277,-0.10657 -1.6073,-0.31976 -0.51465,-0.21308 -0.96887,-0.51654 -1.36261,-0.9104 -0.39386,-0.39386 -0.69732,-0.84809 -0.91052,-1.36261 -0.21313,-0.51459 -0.31964,-1.05036 -0.31958,-1.60724 l 0,-51.59998 c -6e-5,-0.557 0.10645,-1.0928 0.31952,-1.60736 0.21319,-0.51456 0.51672,-0.96872 0.91058,-1.36252 0.39374,-0.39383 0.84796,-0.69732 1.36255,-0.91049 0.51459,-0.2131 1.05036,-0.31964 1.60736,-0.31964 z"
             style="fill:#be8377;fill-opacity:1;fill-rule:nonzero;stroke:none"
             id="path114"
             inkscape:connector-curvature="0" /></g><g
           id="g116"
           transform="scale(2.9942279,2.9942279)"><text
             transform="translate(899,541)"
             style="font-variant:normal;font-weight:bold;font-size:24px;font-family:'Liberation Sans';-inkscape-font-specification:LiberationSans-Bold;writing-mode:lr-tb;fill:#ffffff;fill-opacity:1;fill-rule:nonzero;stroke:none"
             id="text118"><tspan
               x="0 17.332031 36"
               y="0"
               sodipodi:role="line"
               id="tspan120">COM</tspan></text>
</g><g
           id="g122"
           transform="matrix(2.9942279,0,0,2.9942279,1.4971139,1.4971139)"><path
             d="m 676.20001,522 141.59998,0 c 0.55688,0 1.09259,0.10657 1.60718,0.31964 0.51452,0.21314 0.96875,0.5166 1.36261,0.91046 0.39379,0.3938 0.69726,0.84796 0.91033,1.36255 0.2132,0.51459 0.31983,1.05042 0.31989,1.60736 l 0,51.59998 c -6e-5,0.55694 -0.10663,1.09265 -0.31982,1.60718 -0.21314,0.51458 -0.51661,0.96881 -0.9104,1.36267 -0.39386,0.3938 -0.84809,0.69726 -1.36261,0.9104 -0.51459,0.21313 -1.0503,0.3197 -1.60718,0.31976 l -141.59998,0 c -0.557,-6e-5 -1.09277,-0.10663 -1.6073,-0.31976 -0.51465,-0.21314 -0.96887,-0.5166 -1.36261,-0.9104 -0.39386,-0.39386 -0.69732,-0.84803 -0.91046,-1.36261 -0.21313,-0.51459 -0.3197,-1.0503 -0.31964,-1.60724 l 0,-51.59998 c -6e-5,-0.55694 0.10651,-1.09277 0.31964,-1.60736 0.21314,-0.51459 0.5166,-0.96875 0.91046,-1.36255 0.39374,-0.39386 0.84796,-0.69732 1.36255,-0.91046 C 675.10724,522.10657 675.64301,522 676.20001,522 Z"
             style="fill:#be8377;fill-opacity:1;fill-rule:nonzero;stroke:none"
             id="path124"
             inkscape:connector-curvature="0" /></g><g
           id="g126"
           transform="scale(2.9942279,2.9942279)"><text
             transform="translate(706.3125,561)"
             style="font-variant:normal;font-weight:bold;font-size:24px;font-family:'Liberation Sans';-inkscape-font-specification:LiberationSans-Bold;writing-mode:lr-tb;fill:#ffffff;fill-opacity:1;fill-rule:nonzero;stroke:none"
             id="text128"><tspan
               x="0 16.007812 30.667969 40.007812 53.355469 66.703125"
               y="0"
               sodipodi:role="line"
               id="tspan130">Spread</tspan></text>
</g><g
           id="g132"
           transform="matrix(2.9942279,0,0,2.9942279,1.4971139,1.4971139)"><path
             d="m 496.20001,502 141.59998,0 c 0.55694,0 1.09265,0.10654 1.60718,0.31964 0.51458,0.21317 0.96881,0.51666 1.36267,0.91049 0.39373,0.3938 0.6972,0.848 0.91034,1.36255 0.21319,0.51456 0.31976,1.05033 0.31982,1.60733 l 0,51.59998 c -6e-5,0.55688 -0.10663,1.09259 -0.31982,1.60718 -0.21314,0.51458 -0.51661,0.96881 -0.91034,1.36267 -0.39386,0.39386 -0.84809,0.69732 -1.36261,0.9104 -0.51459,0.21319 -1.0503,0.31976 -1.60724,0.31976 l -141.59998,0 c -0.55697,0 -1.09274,-0.10657 -1.6073,-0.31976 -0.51455,-0.21308 -0.96875,-0.51654 -1.36255,-0.9104 -0.39386,-0.39386 -0.69735,-0.84809 -0.91049,-1.36261 -0.21316,-0.51459 -0.3197,-1.05036 -0.31967,-1.60724 l 0,-51.59998 c -3e-5,-0.557 0.10651,-1.0928 0.31967,-1.60736 0.21314,-0.51456 0.51663,-0.96872 0.91049,-1.36252 0.3938,-0.39383 0.848,-0.69732 1.36255,-0.91049 0.51456,-0.2131 1.05033,-0.31964 1.6073,-0.31964 z"
             style="fill:#be8377;fill-opacity:1;fill-rule:nonzero;stroke:none"
             id="path134"
             inkscape:connector-curvature="0" /></g><g
           id="g136"
           transform="scale(2.9942279,2.9942279)"><text
             transform="translate(532.98438,541)"
             style="font-variant:normal;font-weight:bold;font-size:24px;font-family:'Liberation Sans';-inkscape-font-specification:LiberationSans-Bold;writing-mode:lr-tb;fill:#ffffff;fill-opacity:1;fill-rule:nonzero;stroke:none"
             id="text138"><tspan
               x="0 17.332031 34.664062 51.996094"
               y="0"
               sodipodi:role="line"
               id="tspan140">CUBE</tspan></text>
</g><g
           id="g142"
           transform="matrix(2.9942279,0,0,2.9942279,1.4971139,1.4971139)"><path
             d="m 506.20001,122 141.59998,0 c 0.55694,0 1.09265,0.10657 1.60724,0.31971 0.51452,0.21313 0.96869,0.5166 1.36255,0.91044 0.39379,0.39382 0.69726,0.84801 0.91046,1.36258 0.21307,0.51455 0.3197,1.05031 0.31976,1.60727 l 0,51.6 c -6e-5,0.55693 -0.10669,1.09268 -0.31976,1.60724 -0.2132,0.51456 -0.51667,0.96875 -0.91046,1.3626 -0.39386,0.39381 -0.84803,0.69729 -1.36255,0.91044 -0.51459,0.21312 -1.0503,0.3197 -1.60724,0.31972 l -141.59998,0 c -0.557,-2e-5 -1.0928,-0.1066 -1.60736,-0.31973 -0.51456,-0.21315 -0.96872,-0.51662 -1.36252,-0.91043 -0.39386,-0.39385 -0.69735,-0.84804 -0.91049,-1.3626 C 502.10651,178.89268 501.99997,178.35693 502,177.8 l 0,-51.6 c -3e-5,-0.55696 0.10651,-1.09272 0.31961,-1.60727 0.21317,-0.51457 0.51666,-0.96876 0.91052,-1.36258 0.3938,-0.39384 0.848,-0.69732 1.36255,-0.91045 0.51456,-0.21313 1.05033,-0.3197 1.60733,-0.3197 z"
             style="fill:#2ca02c;fill-opacity:1;fill-rule:nonzero;stroke:none"
             id="path144"
             inkscape:connector-curvature="0" /></g><g
           id="g146"
           transform="scale(2.9942279,2.9942279)"><text
             transform="translate(541,165)"
             style="font-variant:normal;font-weight:bold;font-size:36px;font-family:'Liberation Sans';-inkscape-font-specification:LiberationSans-Bold;writing-mode:lr-tb;fill:#ffffff;fill-opacity:1;fill-rule:nonzero;stroke:none"
             id="text148"><tspan
               x="0 24.011719 50.009766"
               y="0"
               sodipodi:role="line"
               id="tspan150">SCF</tspan></text>
</g><g
           id="g152"
           transform="matrix(2.9942279,0,0,2.9942279,1.4971139,1.4971139)"><path
             d="m 686.20001,22 141.59998,0 c 0.55688,0 1.09259,0.106567 1.60718,0.319704 0.51458,0.213137 0.96875,0.516619 1.36261,0.910446 0.39379,0.393824 0.69726,0.848017 0.91033,1.362576 0.2132,0.514559 0.31983,1.050318 0.31989,1.607275 l 0,51.600002 c -6e-5,0.556946 -0.10669,1.092697 -0.31982,1.607262 -0.21314,0.514557 -0.51661,0.96875 -0.9104,1.362579 -0.39386,0.393822 -0.84803,0.697296 -1.36261,0.910439 -0.51459,0.213142 -1.0503,0.319709 -1.60718,0.319717 l -141.59998,0 c -0.557,-8e-6 -1.09277,-0.106575 -1.6073,-0.319717 -0.51465,-0.213143 -0.96887,-0.516617 -1.36261,-0.910439 -0.39386,-0.393829 -0.69732,-0.848022 -0.91046,-1.362579 C 682.10651,78.8927 681.99994,78.356949 682,77.800003 l 0,-51.600002 c -6e-5,-0.556957 0.10651,-1.092716 0.31964,-1.607275 0.21314,-0.514559 0.5166,-0.968752 0.91046,-1.362576 0.39374,-0.393827 0.84796,-0.697309 1.36255,-0.910446 C 685.10724,22.106567 685.64301,22 686.20001,22 Z"
             style="fill:#66d25b;fill-opacity:1;fill-rule:nonzero;stroke:none"
             id="path154"
             inkscape:connector-curvature="0" /></g><g
           id="g156"
           transform="scale(2.9942279,2.9942279)"><text
             transform="translate(698.32813,47)"
             style="font-variant:normal;font-weight:bold;font-size:24px;font-family:'Liberation Sans';-inkscape-font-specification:LiberationSans-Bold;writing-mode:lr-tb;fill:#ffffff;fill-opacity:1;fill-rule:nonzero;stroke:none"
             id="text158"><tspan
               x="0 17.332031 31.992188 46.652344 53.320312 67.980469 82.640625 95.988281 103.98047"
               y="0"
               sodipodi:role="line"
               id="tspan160">Conjugate</tspan></text>
<text
             transform="translate(709.65625,75)"
             style="font-variant:normal;font-weight:bold;font-size:24px;font-family:'Liberation Sans';-inkscape-font-specification:LiberationSans-Bold;writing-mode:lr-tb;fill:#ffffff;fill-opacity:1;fill-rule:nonzero;stroke:none"
             id="text162"><tspan
               x="0 14.660156 24 37.347656 52.007812 58.675781 72.023438 86.683594"
               y="0"
               sodipodi:role="line"
               id="tspan164">gradient</tspan></text>
</g><g
           id="g166"
           transform="matrix(2.9942279,0,0,2.9942279,1.4971139,1.4971139)"><path
             d="M 634.59998,120 690.57001,88.910004"
             style="fill:none;stroke:#2ca02c;stroke-width:1;stroke-linecap:butt;stroke-linejoin:miter;stroke-miterlimit:10;stroke-dasharray:none;stroke-opacity:1"
             id="path168"
             inkscape:connector-curvature="0" /><path
             d="M 696.46997,85.629997 690.78998,93.93 690.57001,88.910004 686.41998,86.07 696.46997,85.629997 Z"
             style="fill:#2ca02c;fill-opacity:1;fill-rule:nonzero;stroke:none"
             id="path170"
             inkscape:connector-curvature="0" /><path
             d="M 696.46997,85.629997 690.78998,93.93 690.57001,88.910004 686.41998,86.07 696.46997,85.629997 Z"
             style="fill:none;stroke:#2ca02c;stroke-width:1;stroke-linecap:butt;stroke-linejoin:miter;stroke-miterlimit:10;stroke-dasharray:none;stroke-opacity:1"
             id="path172"
             inkscape:connector-curvature="0" /><path
             d="m 506.20001,2 141.59998,0 c 0.55694,0 1.09265,0.1065686 1.60724,0.3197057 0.51452,0.2131374 0.96869,0.5166192 1.36255,0.9104457 0.39379,0.3938263 0.69726,0.8480189 0.91046,1.3625777 0.21307,0.5145593 0.3197,1.0503158 0.31976,1.6072707 l 0,51.5999992 c -6e-5,0.55695 -0.10669,1.092705 -0.31976,1.607258 -0.2132,0.514561 -0.51667,0.968754 -0.91046,1.362583 -0.39386,0.393826 -0.84803,0.697308 -1.36255,0.910446 -0.51459,0.213139 -1.0503,0.31971 -1.60724,0.319714 l -141.59998,0 c -0.557,-4e-6 -1.0928,-0.106571 -1.60736,-0.31971 -0.51456,-0.213138 -0.96872,-0.51662 -1.36252,-0.910442 -0.39386,-0.393833 -0.69735,-0.848026 -0.91049,-1.362583 C 502.10651,58.892704 501.99997,58.356949 502,57.799999 l 0,-51.5999992 c -3e-5,-0.5569549 0.10651,-1.0927114 0.31961,-1.6072707 0.21317,-0.5145588 0.51666,-0.9687514 0.91052,-1.3625777 0.3938,-0.3938265 0.848,-0.6973083 1.36255,-0.9104457 C 505.10724,2.1065686 505.64301,2 506.20001,2 Z"
             style="fill:#66d25b;fill-opacity:1;fill-rule:nonzero;stroke:none"
             id="path174"
             inkscape:connector-curvature="0" /></g><g
           id="g176"
           transform="scale(2.9942279,2.9942279)"><text
             transform="translate(552.34375,27)"
             style="font-variant:normal;font-weight:bold;font-size:24px;font-family:'Liberation Sans';-inkscape-font-specification:LiberationSans-Bold;writing-mode:lr-tb;fill:#ffffff;fill-opacity:1;fill-rule:nonzero;stroke:none"
             id="text178"><tspan
               x="0 14.660156 21.328125 35.988281"
               y="0"
               sodipodi:role="line"
               id="tspan180">Line</tspan></text>
<text
             transform="translate(503.67188,55)"
             style="font-variant:normal;font-weight:bold;font-size:24px;font-family:'Liberation Sans';-inkscape-font-specification:LiberationSans-Bold;writing-mode:lr-tb;fill:#ffffff;fill-opacity:1;fill-rule:nonzero;stroke:none"
             id="text182"><tspan
               x="0 21.339844 28.007812 42.667969 49.335938 70.675781 77.34375 89.34375 102.69141 110.68359 117.35156 132.01172"
               y="0"
               sodipodi:role="line"
               id="tspan184">minimization</tspan></text>
</g><g
           id="g186"
           transform="matrix(2.9942279,0,0,2.9942279,1.4971139,1.4971139)"><path
             d="m 577,120 0,-45.900002"
             style="fill:none;stroke:#2ca02c;stroke-width:1;stroke-linecap:butt;stroke-linejoin:miter;stroke-miterlimit:10;stroke-dasharray:none;stroke-opacity:1"
             id="path188"
             inkscape:connector-curvature="0" /><path
             d="m 577,67.349998 4.5,9 -4.5,-2.25 -4.5,2.25 4.5,-9 z"
             style="fill:#2ca02c;fill-opacity:1;fill-rule:nonzero;stroke:none"
             id="path190"
             inkscape:connector-curvature="0" /><path
             d="m 577,67.349998 4.5,9 -4.5,-2.25 -4.5,2.25 4.5,-9 z"
             style="fill:none;stroke:#2ca02c;stroke-width:1;stroke-linecap:butt;stroke-linejoin:miter;stroke-miterlimit:10;stroke-dasharray:none;stroke-opacity:1"
             id="path192"
             inkscape:connector-curvature="0" /><path
             d="m 326.20001,22 141.59998,0 c 0.55691,0 1.09268,0.106567 1.60724,0.319704 0.51455,0.213137 0.96875,0.516619 1.36261,0.910446 0.3938,0.393824 0.69726,0.848017 0.9104,1.362576 0.21316,0.514559 0.31973,1.050318 0.31976,1.607275 l 0,51.600002 c -3e-5,0.556946 -0.1066,1.092697 -0.31976,1.607262 -0.21314,0.514557 -0.5166,0.96875 -0.9104,1.362579 -0.39386,0.393822 -0.84806,0.697296 -1.36261,0.910439 -0.51456,0.213142 -1.05033,0.319709 -1.60724,0.319717 l -141.59998,0 c -0.55697,-8e-6 -1.09274,-0.106575 -1.60733,-0.319717 -0.51455,-0.213143 -0.96872,-0.516617 -1.36255,-0.910439 -0.39383,-0.393829 -0.69732,-0.848022 -0.91046,-1.362579 C 322.10654,78.8927 321.99997,78.356949 322,77.800003 l 0,-51.600002 c -3e-5,-0.556957 0.10654,-1.092716 0.31967,-1.607275 0.21314,-0.514559 0.51663,-0.968752 0.91046,-1.362576 0.39383,-0.393827 0.848,-0.697309 1.36255,-0.910446 C 325.10727,22.106567 325.64304,22 326.20001,22 Z"
             style="fill:#66d25b;fill-opacity:1;fill-rule:nonzero;stroke:none"
             id="path194"
             inkscape:connector-curvature="0" /></g><g
           id="g196"
           transform="scale(2.9942279,2.9942279)"><text
             transform="translate(346.98438,47)"
             style="font-variant:normal;font-weight:bold;font-size:24px;font-family:'Liberation Sans';-inkscape-font-specification:LiberationSans-Bold;writing-mode:lr-tb;fill:#ffffff;fill-opacity:1;fill-rule:nonzero;stroke:none"
             id="text198"><tspan
               x="0 16.007812 24 37.347656 50.695312 65.355469 78.703125 92.050781"
               y="0"
               sodipodi:role="line"
               id="tspan200">Steepest</tspan></text>
<text
             transform="translate(351.64063,75)"
             style="font-variant:normal;font-weight:bold;font-size:24px;font-family:'Liberation Sans';-inkscape-font-specification:LiberationSans-Bold;writing-mode:lr-tb;fill:#ffffff;fill-opacity:1;fill-rule:nonzero;stroke:none"
             id="text202"><tspan
               x="0 14.660156 28.007812 41.355469 54.703125 68.050781 82.710938"
               y="0"
               sodipodi:role="line"
               id="tspan204">descent</tspan></text>
</g><g
           id="g206"
           transform="matrix(2.9942279,0,0,2.9942279,1.4971139,1.4971139)"><path
             d="M 519.40002,120 463.42999,88.910004"
             style="fill:none;stroke:#2ca02c;stroke-width:1;stroke-linecap:butt;stroke-linejoin:miter;stroke-miterlimit:10;stroke-dasharray:none;stroke-opacity:1"
             id="path208"
             inkscape:connector-curvature="0" /><path
             d="m 457.53,85.629997 10.04999,0.440003 -4.15,2.840004 -0.22,5.019996 -5.67999,-8.300003 z"
             style="fill:#2ca02c;fill-opacity:1;fill-rule:nonzero;stroke:none"
             id="path210"
             inkscape:connector-curvature="0" /><path
             d="m 457.53,85.629997 10.04999,0.440003 -4.15,2.840004 -0.22,5.019996 -5.67999,-8.300003 z"
             style="fill:none;stroke:#2ca02c;stroke-width:1;stroke-linecap:butt;stroke-linejoin:miter;stroke-miterlimit:10;stroke-dasharray:none;stroke-opacity:1"
             id="path212"
             inkscape:connector-curvature="0" /><path
             d="m 806.20001,287.5 141.59998,0 c 0.55694,0 1.09265,0.10657 1.60718,0.3197 0.51452,0.21311 0.96875,0.5166 1.36261,0.91043 0.39373,0.39383 0.6972,0.84803 0.9104,1.36261 0.21313,0.51453 0.31976,1.0503 0.31982,1.60727 l 0,51.59998 c -6e-5,0.55691 -0.10669,1.09268 -0.31989,1.60727 -0.21313,0.51452 -0.5166,0.96872 -0.91033,1.36258 -0.39386,0.39383 -0.84809,0.69729 -1.36261,0.91043 -0.51453,0.2131 -1.05024,0.3197 -1.60718,0.31973 l -141.59998,0 c -0.55707,-3e-5 -1.09283,-0.10663 -1.60742,-0.31973 -0.51459,-0.21314 -0.96875,-0.5166 -1.36255,-0.91043 -0.39386,-0.39386 -0.69733,-0.84806 -0.91046,-1.36258 -0.21307,-0.51459 -0.31964,-1.05036 -0.31958,-1.60727 l 0,-51.59998 c -6e-5,-0.55697 0.10651,-1.09274 0.31958,-1.6073 0.21313,-0.51455 0.5166,-0.96875 0.91046,-1.36258 0.3938,-0.39383 0.84796,-0.69732 1.36255,-0.91043 0.51459,-0.21313 1.05035,-0.3197 1.60742,-0.3197 z"
             style="fill:#9467bd;fill-opacity:1;fill-rule:nonzero;stroke:none"
             id="path214"
             inkscape:connector-curvature="0" /></g><g
           id="g216"
           transform="scale(2.9942279,2.9942279)"><text
             transform="translate(856.98438,326)"
             style="font-variant:normal;font-weight:bold;font-size:24px;font-family:'Liberation Sans';-inkscape-font-specification:LiberationSans-Bold;writing-mode:lr-tb;fill:#ffffff;fill-opacity:1;fill-rule:nonzero;stroke:none"
             id="text218"><tspan
               x="0 16.007812 22.675781"
               y="0"
               sodipodi:role="line"
               id="tspan220">SIC</tspan></text>
</g><g
           id="g222"
           transform="matrix(2.9942279,0,0,2.9942279,1.4971139,1.4971139)"><path
             d="m 1006.2,287.5 141.6001,0 c 0.5568,0 1.0925,0.10657 1.607,0.3197 0.5145,0.21311 0.9688,0.5166 1.3627,0.91043 0.3938,0.39383 0.6972,0.84803 0.9104,1.36261 0.2131,0.51453 0.3197,1.0503 0.3198,1.60727 l 0,51.59998 c -10e-5,0.55691 -0.1067,1.09268 -0.3198,1.60727 -0.2132,0.51452 -0.5166,0.96872 -0.9104,1.36258 -0.3939,0.39383 -0.8482,0.69729 -1.3627,0.91043 -0.5145,0.2131 -1.0502,0.3197 -1.607,0.31973 l -141.6001,0 c -0.5571,-3e-5 -1.0928,-0.10663 -1.6074,-0.31973 -0.5146,-0.21314 -0.9688,-0.5166 -1.3625,-0.91043 -0.3939,-0.39386 -0.6974,-0.84806 -0.9105,-1.36258 -0.2131,-0.51459 -0.3197,-1.05036 -0.3196,-1.60727 l 0,-51.59998 c -10e-5,-0.55697 0.1065,-1.09274 0.3196,-1.6073 0.2131,-0.51455 0.5166,-0.96875 0.9105,-1.36258 0.3937,-0.39383 0.8479,-0.69732 1.3624,-0.91043 0.5146,-0.21313 1.0504,-0.3197 1.6075,-0.3197 z"
             style="fill:#c696f0;fill-opacity:1;fill-rule:nonzero;stroke:none"
             id="path224"
             inkscape:connector-curvature="0" /></g><g
           id="g226"
           transform="scale(2.9942279,2.9942279)"><text
             transform="translate(1045.6563,312)"
             style="font-variant:normal;font-weight:bold;font-size:24px;font-family:'Liberation Sans';-inkscape-font-specification:LiberationSans-Bold;writing-mode:lr-tb;fill:#ffffff;fill-opacity:1;fill-rule:nonzero;stroke:none"
             id="text228"><tspan
               x="0 14.660156 21.328125 34.675781 48.023438"
               y="0"
               sodipodi:role="line"
               id="tspan230">Fixed</tspan></text>
<text
             transform="translate(1034.9844,340)"
             style="font-variant:normal;font-weight:bold;font-size:24px;font-family:'Liberation Sans';-inkscape-font-specification:LiberationSans-Bold;writing-mode:lr-tb;fill:#ffffff;fill-opacity:1;fill-rule:nonzero;stroke:none"
             id="text232"><tspan
               x="0 14.660156 28.007812 42.667969 56.015625 62.683594 70.675781"
               y="0"
               sodipodi:role="line"
               id="tspan234">density</tspan></text>
</g><g
           id="g236"
           transform="matrix(2.9942279,0,0,2.9942279,1.4971139,1.4971139)"><path
             d="m 954,317.5 35.90002,0"
             style="fill:none;stroke:#9467bd;stroke-width:1;stroke-linecap:butt;stroke-linejoin:miter;stroke-miterlimit:10;stroke-dasharray:none;stroke-opacity:1"
             id="path238"
             inkscape:connector-curvature="0" /><path
             d="m 996.65002,317.5 -9,4.5 2.25,-4.5 -2.25,-4.5 9,4.5 z"
             style="fill:#9467bd;fill-opacity:1;fill-rule:nonzero;stroke:none"
             id="path240"
             inkscape:connector-curvature="0" /><path
             d="m 996.65002,317.5 -9,4.5 2.25,-4.5 -2.25,-4.5 9,4.5 z"
             style="fill:none;stroke:#9467bd;stroke-width:1;stroke-linecap:butt;stroke-linejoin:miter;stroke-miterlimit:10;stroke-dasharray:none;stroke-opacity:1"
             id="path242"
             inkscape:connector-curvature="0" /><path
             d="M 876.20001,402 1017.8,402 c 0.5569,0 1.0926,0.10657 1.6071,0.31967 0.5146,0.21317 0.9688,0.51663 1.3627,0.91046 0.3937,0.3938 0.6972,0.848 0.9104,1.36258 0.2131,0.51453 0.3197,1.0503 0.3198,1.6073 l 0,51.59998 c -10e-5,0.55691 -0.1067,1.09265 -0.3198,1.60721 -0.2132,0.51455 -0.5167,0.96878 -0.9104,1.36261 -0.3939,0.39383 -0.8481,0.69729 -1.3627,0.91043 -0.5145,0.21316 -1.0502,0.31973 -1.6071,0.31976 l -141.59999,0 c -0.557,-3e-5 -1.09277,-0.1066 -1.60736,-0.31973 -0.51459,-0.21317 -0.96875,-0.51663 -1.36255,-0.91043 -0.39386,-0.39386 -0.69739,-0.84806 -0.91046,-1.36261 C 872.10657,458.89264 872,458.3569 872,457.79999 l 0,-51.59998 c 0,-0.557 0.10657,-1.09277 0.31964,-1.60733 0.21307,-0.51455 0.5166,-0.96875 0.91046,-1.36255 0.3938,-0.39383 0.84796,-0.69729 1.36249,-0.91046 0.51459,-0.2131 1.05042,-0.31967 1.60742,-0.31967 z"
             style="fill:#be8377;fill-opacity:1;fill-rule:nonzero;stroke:none"
             id="path244"
             inkscape:connector-curvature="0" /></g><g
           id="g246"
           transform="scale(2.9942279,2.9942279)"><text
             transform="translate(894.32813,427)"
             style="font-variant:normal;font-weight:bold;font-size:24px;font-family:'Liberation Sans';-inkscape-font-specification:LiberationSans-Bold;writing-mode:lr-tb;fill:#ffffff;fill-opacity:1;fill-rule:nonzero;stroke:none"
             id="text248"><tspan
               x="0 17.332031 33.339844 52.007812 58.675781 65.34375 80.003906 98.671875"
               y="0"
               sodipodi:role="line"
               id="tspan250">KSO, FO,</tspan></text>
<text
             transform="translate(923,455)"
             style="font-variant:normal;font-weight:bold;font-size:24px;font-family:'Liberation Sans';-inkscape-font-specification:LiberationSans-Bold;writing-mode:lr-tb;fill:#ffffff;fill-opacity:1;fill-rule:nonzero;stroke:none"
             id="text252"><tspan
               x="0 14.660156 29.320312"
               y="0"
               sodipodi:role="line"
               id="tspan254">FLO</tspan></text>
</g><g
           id="g256"
           transform="matrix(2.9942279,0,0,2.9942279,1.4971139,1.4971139)"><path
             d="m 824,432 35.90002,0"
             style="fill:none;stroke:#8c564b;stroke-width:1;stroke-linecap:butt;stroke-linejoin:miter;stroke-miterlimit:10;stroke-dasharray:none;stroke-opacity:1"
             id="path258"
             inkscape:connector-curvature="0" /><path
             d="m 866.65002,432 -9,4.5 2.25,-4.5 -2.25,-4.5 9,4.5 z"
             style="fill:#8c564b;fill-opacity:1;fill-rule:nonzero;stroke:none"
             id="path260"
             inkscape:connector-curvature="0" /><path
             d="m 866.65002,432 -9,4.5 2.25,-4.5 -2.25,-4.5 9,4.5 z"
             style="fill:none;stroke:#8c564b;stroke-width:1;stroke-linecap:butt;stroke-linejoin:miter;stroke-miterlimit:10;stroke-dasharray:none;stroke-opacity:1"
             id="path262"
             inkscape:connector-curvature="0" /><path
             d="m 256.20001,162 141.59998,0 c 0.55691,0 1.09265,0.10657 1.60721,0.3197 0.51455,0.21312 0.96878,0.5166 1.36264,0.91045 0.39383,0.39381 0.69729,0.84799 0.91046,1.36256 0.2131,0.51454 0.31967,1.05031 0.3197,1.60729 l 0,51.6 c -3e-5,0.55695 -0.1066,1.0927 -0.3197,1.60726 -0.21317,0.51455 -0.51663,0.96875 -0.91046,1.36258 -0.39386,0.39381 -0.84809,0.69729 -1.36264,0.91043 -0.51456,0.21315 -1.0503,0.31971 -1.60721,0.31973 l -141.59998,0 c -0.55697,-2e-5 -1.09274,-0.10658 -1.60731,-0.31973 -0.51456,-0.21314 -0.96875,-0.51662 -1.36257,-0.91043 -0.39383,-0.39383 -0.69731,-0.84803 -0.91044,-1.3626 C 252.10654,218.8927 251.99998,218.35695 252,217.8 l 0,-51.6 c -2e-5,-0.55698 0.10654,-1.09275 0.31969,-1.60729 0.21313,-0.51457 0.51661,-0.96875 0.91046,-1.36256 0.39381,-0.39385 0.84799,-0.69733 1.36256,-0.91045 0.51456,-0.21313 1.05033,-0.3197 1.6073,-0.3197 z"
             style="fill:#ff7f0e;fill-opacity:1;fill-rule:nonzero;stroke:none"
             id="path264"
             inkscape:connector-curvature="0" /></g><g
           id="g266"
           transform="scale(2.9942279,2.9942279)"><text
             transform="translate(277.625,201)"
             style="font-variant:normal;font-weight:bold;font-size:24px;font-family:'Liberation Sans';-inkscape-font-specification:LiberationSans-Bold;writing-mode:lr-tb;fill:#ffffff;fill-opacity:1;fill-rule:nonzero;stroke:none"
             id="text268"><tspan
               x="0 16.007812 29.355469 42.703125 50.695312 64.042969 85.382812"
               y="0"
               sodipodi:role="line"
               id="tspan270">Systems</tspan></text>
</g><g
           id="g272"
           transform="matrix(2.9942279,0,0,2.9942279,1.4971139,1.4971139)"><path
             d="M 56.200001,162 197.8,162 c 0.55693,0 1.09268,0.10657 1.60726,0.3197 0.51455,0.21312 0.96875,0.5166 1.36258,0.91045 0.39381,0.39381 0.69729,0.84799 0.91043,1.36256 0.21315,0.51454 0.31971,1.05031 0.31973,1.60729 l 0,51.6 c -2e-5,0.55695 -0.10658,1.0927 -0.31973,1.60726 -0.21314,0.51455 -0.51662,0.96875 -0.91043,1.36258 -0.39383,0.39381 -0.84804,0.69729 -1.36261,0.91043 -0.51455,0.21315 -1.0503,0.31971 -1.60723,0.31973 l -141.599999,0 c -0.556957,-2e-5 -1.092716,-0.10658 -1.607277,-0.31973 -0.514561,-0.21314 -0.96875,-0.51662 -1.362576,-0.91043 -0.393829,-0.39383 -0.697315,-0.84803 -0.910453,-1.3626 C 52.10656,218.8927 51.999996,218.35695 52,217.8 l 0,-51.6 c -4e-6,-0.55698 0.10656,-1.09275 0.319698,-1.60729 0.213139,-0.51457 0.516621,-0.96875 0.91045,-1.36256 0.393826,-0.39385 0.848015,-0.69733 1.362576,-0.91045 C 55.107285,162.10657 55.643044,162 56.200001,162 Z"
             style="fill:#ffb048;fill-opacity:1;fill-rule:nonzero;stroke:none"
             id="path274"
             inkscape:connector-curvature="0" /></g><g
           id="g276"
           transform="scale(2.9942279,2.9942279)"><text
             transform="translate(103.65625,201)"
             style="font-variant:normal;font-weight:bold;font-size:24px;font-family:'Liberation Sans';-inkscape-font-specification:LiberationSans-Bold;writing-mode:lr-tb;fill:#ffffff;fill-opacity:1;fill-rule:nonzero;stroke:none"
             id="text278"><tspan
               x="0 16.007812 32.015625"
               y="0"
               sodipodi:role="line"
               id="tspan280">XYZ</tspan></text>
</g><g
           id="g282"
           transform="matrix(2.9942279,0,0,2.9942279,1.4971139,1.4971139)"><path
             d="m 156.2,62 141.59999,0 c 0.55694,0 1.09268,0.106567 1.60724,0.319702 0.51455,0.213135 0.96875,0.516617 1.36258,0.910446 0.39383,0.393822 0.69729,0.848015 0.91046,1.362572 0.21313,0.514557 0.3197,1.050316 0.31973,1.607277 L 302,117.8 c -3e-5,0.55696 -0.1066,1.09271 -0.31973,1.60726 -0.21314,0.51455 -0.5166,0.96875 -0.9104,1.36258 -0.39386,0.39382 -0.84806,0.6973 -1.36261,0.91044 -0.51456,0.21315 -1.05033,0.31971 -1.60727,0.31972 L 156.2,122 c -0.55696,-1e-5 -1.09273,-0.10657 -1.60729,-0.31972 -0.51455,-0.21314 -0.96875,-0.51662 -1.36256,-0.91044 -0.39385,-0.39383 -0.69733,-0.84803 -0.91046,-1.36259 C 152.10655,118.8927 151.99998,118.35696 152,117.8 l 0,-51.600003 c -2e-5,-0.556961 0.10655,-1.09272 0.31969,-1.607277 0.21313,-0.514564 0.51661,-0.968754 0.91046,-1.362575 0.39381,-0.393826 0.84801,-0.697308 1.36256,-0.910443 C 155.10727,62.106567 155.64304,62 156.2,62 Z"
             style="fill:#ffb048;fill-opacity:1;fill-rule:nonzero;stroke:none"
             id="path284"
             inkscape:connector-curvature="0" /></g><g
           id="g286"
           transform="scale(2.9942279,2.9942279)"><text
             transform="translate(170.98438,101)"
             style="font-variant:normal;font-weight:bold;font-size:24px;font-family:'Liberation Sans';-inkscape-font-specification:LiberationSans-Bold;writing-mode:lr-tb;fill:#ffffff;fill-opacity:1;fill-rule:nonzero;stroke:none"
             id="text288"><tspan
               x="0 17.332031 30.679688 45.339844 53.332031 66.679688 76.019531 82.6875 97.347656"
               y="0"
               sodipodi:role="line"
               id="tspan290">Centering</tspan></text>
</g><g
           id="g292"
           transform="matrix(2.9942279,0,0,2.9942279,1.4971139,1.4971139)"><path
             d="m 756.20001,162 141.59998,0 c 0.55694,0 1.09265,0.10657 1.60718,0.3197 0.51458,0.21312 0.96875,0.5166 1.36261,0.91045 0.39379,0.39381 0.69726,0.84799 0.91033,1.36256 0.2132,0.51454 0.31983,1.05031 0.31989,1.60729 l 0,51.6 c -6e-5,0.55695 -0.10663,1.0927 -0.31982,1.60726 -0.21314,0.51455 -0.51661,0.96875 -0.9104,1.36258 -0.39386,0.39381 -0.84803,0.69729 -1.36261,0.91043 -0.51453,0.21315 -1.05024,0.31971 -1.60718,0.31973 l -141.59998,0 c -0.557,-2e-5 -1.09283,-0.10658 -1.60742,-0.31973 -0.51453,-0.21314 -0.96869,-0.51662 -1.36255,-0.91043 -0.39386,-0.39383 -0.69733,-0.84803 -0.9104,-1.3626 C 752.10645,218.8927 751.99994,218.35695 752,217.8 l 0,-51.6 c -6e-5,-0.55698 0.10645,-1.09275 0.31958,-1.60729 0.21313,-0.51457 0.5166,-0.96875 0.91046,-1.36256 0.39386,-0.39385 0.84802,-0.69733 1.36255,-0.91045 0.51459,-0.21313 1.05042,-0.3197 1.60742,-0.3197 z"
             style="fill:#d62728;fill-opacity:1;fill-rule:nonzero;stroke:none"
             id="path294"
             inkscape:connector-curvature="0" /></g><g
           id="g296"
           transform="scale(2.9942279,2.9942279)"><text
             transform="translate(769.64063,201)"
             style="font-variant:normal;font-weight:bold;font-size:24px;font-family:'Liberation Sans';-inkscape-font-specification:LiberationSans-Bold;writing-mode:lr-tb;fill:#ffffff;fill-opacity:1;fill-rule:nonzero;stroke:none"
             id="text298"><tspan
               x="0 16.007812 30.667969 38.660156 52.007812 66.667969 74.660156 81.328125 94.675781 101.34375"
               y="0"
               sodipodi:role="line"
               id="tspan300">Potentials</tspan></text>
</g><g
           id="g302"
           transform="matrix(2.9942279,0,0,2.9942279,1.4971139,1.4971139)"><path
             d="m 956.20001,162 141.60009,0 c 0.5568,0 1.0925,0.10657 1.607,0.3197 0.5145,0.21312 0.9688,0.5166 1.3627,0.91045 0.3938,0.39381 0.6972,0.84799 0.9105,1.36256 0.213,0.51454 0.3196,1.05031 0.3197,1.60729 l 0,51.6 c -10e-5,0.55695 -0.1067,1.0927 -0.3199,1.60726 -0.2131,0.51455 -0.5165,0.96875 -0.9103,1.36258 -0.3939,0.39381 -0.8482,0.69729 -1.3627,0.91043 -0.5145,0.21315 -1.0502,0.31971 -1.607,0.31973 l -141.60009,0 c -0.557,-2e-5 -1.09277,-0.10658 -1.6073,-0.31973 -0.51465,-0.21314 -0.96887,-0.51662 -1.36261,-0.91043 -0.39386,-0.39383 -0.69739,-0.84803 -0.91052,-1.3626 C 952.10645,218.8927 951.99994,218.35695 952,217.8 l 0,-51.6 c -6e-5,-0.55698 0.10645,-1.09275 0.31952,-1.60729 0.21319,-0.51457 0.51672,-0.96875 0.91058,-1.36256 0.39374,-0.39385 0.8479,-0.69733 1.36249,-0.91045 0.51459,-0.21313 1.05042,-0.3197 1.60742,-0.3197 z"
             style="fill:#ff6152;fill-opacity:1;fill-rule:nonzero;stroke:none"
             id="path304"
             inkscape:connector-curvature="0" /></g><g
           id="g306"
           transform="scale(2.9942279,2.9942279)"><text
             transform="translate(1001.6562,201)"
             style="font-variant:normal;font-weight:bold;font-size:24px;font-family:'Liberation Sans';-inkscape-font-specification:LiberationSans-Bold;writing-mode:lr-tb;fill:#ffffff;fill-opacity:1;fill-rule:nonzero;stroke:none"
             id="text308"><tspan
               x="0 18.667969 33.328125"
               y="0"
               sodipodi:role="line"
               id="tspan310">GTH</tspan></text>
</g><g
           id="g312"
           transform="matrix(2.9942279,0,0,2.9942279,1.4971139,1.4971139)"><path
             d="m 856.20001,62 141.59998,0 c 0.55694,0 1.09265,0.106567 1.60718,0.319702 0.51458,0.213135 0.96873,0.516617 1.36263,0.910446 0.3938,0.393822 0.6972,0.848015 0.9104,1.362572 0.2132,0.514557 0.3197,1.050316 0.3198,1.607277 L 1002,117.8 c -10e-5,0.55696 -0.1066,1.09271 -0.3198,1.60726 -0.2132,0.51455 -0.5166,0.96875 -0.9104,1.36258 -0.3939,0.39382 -0.84805,0.6973 -1.36263,0.91044 -0.51453,0.21315 -1.05024,0.31971 -1.60718,0.31972 l -141.59998,0 c -0.557,-1e-5 -1.09277,-0.10657 -1.6073,-0.31972 -0.51465,-0.21314 -0.96887,-0.51662 -1.36261,-0.91044 -0.39386,-0.39383 -0.69732,-0.84803 -0.91052,-1.36259 C 852.10645,118.8927 851.99994,118.35696 852,117.8 l 0,-51.600003 c -6e-5,-0.556961 0.10645,-1.09272 0.31952,-1.607277 0.21319,-0.514564 0.51672,-0.968754 0.91058,-1.362575 0.39374,-0.393826 0.84796,-0.697308 1.36255,-0.910443 C 855.10724,62.106567 855.64301,62 856.20001,62 Z"
             style="fill:#ff6152;fill-opacity:1;fill-rule:nonzero;stroke:none"
             id="path314"
             inkscape:connector-curvature="0" /></g><g
           id="g316"
           transform="scale(2.9942279,2.9942279)"><text
             transform="translate(860.98438,87)"
             style="font-variant:normal;font-weight:bold;font-size:24px;font-family:'Liberation Sans';-inkscape-font-specification:LiberationSans-Bold;writing-mode:lr-tb;fill:#ffffff;fill-opacity:1;fill-rule:nonzero;stroke:none"
             id="text318"><tspan
               x="0 17.332031 24 30.667969 38.660156 52.007812 58.675781 72.023438 85.371094 93.363281 102.70312 117.36328"
               y="0"
               sodipodi:role="line"
               id="tspan320">All-electron</tspan></text>
<text
             transform="translate(875.01563,115)"
             style="font-variant:normal;font-weight:bold;font-size:24px;font-family:'Liberation Sans';-inkscape-font-specification:LiberationSans-Bold;writing-mode:lr-tb;fill:#ffffff;fill-opacity:1;fill-rule:nonzero;stroke:none"
             id="text322"><tspan
               x="0 17.332031 31.992188 46.652344 53.320312 67.980469 89.320312"
               y="0"
               sodipodi:role="line"
               id="tspan324">Coulomb</tspan></text>
</g><g
           id="g326"
           transform="matrix(2.9942279,0,0,2.9942279,1.4971139,1.4971139)"><path
             d="m 326.20001,402 141.59998,0 c 0.55691,0 1.09268,0.10657 1.60724,0.31967 0.51455,0.21317 0.96875,0.51663 1.36261,0.91046 0.3938,0.3938 0.69726,0.848 0.9104,1.36258 0.21316,0.51453 0.31973,1.0503 0.31976,1.6073 l 0,51.59998 c -3e-5,0.55691 -0.1066,1.09265 -0.31976,1.60721 -0.21314,0.51455 -0.5166,0.96878 -0.9104,1.36261 -0.39386,0.39383 -0.84806,0.69729 -1.36261,0.91043 -0.51456,0.21316 -1.05033,0.31973 -1.60724,0.31976 l -141.59998,0 c -0.55697,-3e-5 -1.09274,-0.1066 -1.60733,-0.31973 -0.51455,-0.21317 -0.96872,-0.51663 -1.36255,-0.91043 -0.39383,-0.39386 -0.69732,-0.84806 -0.91046,-1.36261 -0.21313,-0.51459 -0.3197,-1.05033 -0.31967,-1.60724 l 0,-51.59998 c -3e-5,-0.557 0.10654,-1.09277 0.31967,-1.60733 0.21314,-0.51455 0.51663,-0.96875 0.91046,-1.36255 0.39383,-0.39383 0.848,-0.69729 1.36255,-0.91046 0.51459,-0.2131 1.05036,-0.31967 1.60733,-0.31967 z"
             style="fill:#e377c2;fill-opacity:1;fill-rule:nonzero;stroke:none"
             id="path328"
             inkscape:connector-curvature="0" /></g><g
           id="g330"
           transform="scale(2.9942279,2.9942279)"><text
             transform="translate(337.64063,441)"
             style="font-variant:normal;font-weight:bold;font-size:24px;font-family:'Liberation Sans';-inkscape-font-specification:LiberationSans-Bold;writing-mode:lr-tb;fill:#ffffff;fill-opacity:1;fill-rule:nonzero;stroke:none"
             id="text332"><tspan
               x="0 16.007812 25.347656 40.007812 54.667969 68.015625 77.355469 85.347656 92.015625 105.36328"
               y="0"
               sodipodi:role="line"
               id="tspan334">Properties</tspan></text>
</g><g
           id="g336"
           transform="matrix(2.9942279,0,0,2.9942279,1.4971139,1.4971139)"><path
             d="m 126.2,402 141.59999,0 c 0.55694,0 1.09271,0.10657 1.60727,0.31967 0.51455,0.21317 0.96875,0.51663 1.36258,0.91046 0.39383,0.3938 0.69729,0.848 0.9104,1.36258 0.21316,0.51453 0.31973,1.0503 0.31976,1.6073 l 0,51.59998 c -3e-5,0.55691 -0.1066,1.09265 -0.31973,1.60721 -0.21314,0.51455 -0.5166,0.96878 -0.91043,1.36261 -0.39383,0.39383 -0.84803,0.69729 -1.36258,0.91043 -0.51456,0.21316 -1.05033,0.31973 -1.60727,0.31976 L 126.2,462 c -0.55696,-3e-5 -1.09272,-0.1066 -1.60727,-0.31973 -0.51457,-0.21317 -0.96876,-0.51663 -1.36258,-0.91043 -0.39384,-0.39386 -0.69732,-0.84806 -0.91046,-1.36261 -0.21313,-0.51459 -0.3197,-1.05033 -0.31969,-1.60724 l 0,-51.59998 c -1e-5,-0.557 0.10656,-1.09277 0.31969,-1.60733 0.21314,-0.51455 0.51662,-0.96875 0.91046,-1.36255 0.39382,-0.39383 0.84801,-0.69729 1.36258,-0.91046 C 125.10728,402.10657 125.64304,402 126.2,402 Z"
             style="fill:#ffa8f5;fill-opacity:1;fill-rule:nonzero;stroke:none"
             id="path338"
             inkscape:connector-curvature="0" /></g><g
           id="g340"
           transform="scale(2.9942279,2.9942279)"><text
             transform="translate(126.53125,441)"
             style="font-variant:normal;font-weight:bold;font-size:24px;font-family:'Liberation Sans';-inkscape-font-specification:LiberationSans-Bold;writing-mode:lr-tb;fill:#ffffff;fill-opacity:1;fill-rule:nonzero;stroke:none"
             id="text342"><tspan
               x="0 12.878906 27.539062 35.53125 48.878906 55.546875 62.214844 75.5625 90.222656 103.57031 112.91016 127.57031"
               y="0"
               sodipodi:role="line"
               id="tspan344">Total energy</tspan></text>
</g><g
           id="g346"
           transform="matrix(2.9942279,0,0,2.9942279,1.4971139,1.4971139)"><path
             d="m 156.2,502 141.59999,0 c 0.55694,0 1.09268,0.10654 1.60724,0.31964 0.51455,0.21317 0.96875,0.51666 1.36258,0.91049 0.39383,0.3938 0.69729,0.848 0.91046,1.36255 0.21313,0.51456 0.3197,1.05033 0.31973,1.60733 l 0,51.59998 c -3e-5,0.55688 -0.1066,1.09259 -0.31973,1.60718 -0.21314,0.51458 -0.5166,0.96881 -0.9104,1.36267 -0.39386,0.39386 -0.84806,0.69732 -1.36261,0.9104 C 298.8927,561.89343 298.35693,562 297.79999,562 L 156.2,562 c -0.55696,0 -1.09273,-0.10657 -1.60729,-0.31976 -0.51455,-0.21308 -0.96875,-0.51654 -1.36256,-0.9104 -0.39385,-0.39386 -0.69733,-0.84809 -0.91046,-1.36261 -0.21314,-0.51459 -0.31971,-1.05036 -0.31969,-1.60724 l 0,-51.59998 c -2e-5,-0.557 0.10655,-1.0928 0.31969,-1.60736 0.21313,-0.51456 0.51661,-0.96872 0.91046,-1.36252 0.39381,-0.39383 0.84801,-0.69732 1.36256,-0.91049 C 155.10727,502.10654 155.64304,502 156.2,502 Z"
             style="fill:#ffa8f5;fill-opacity:1;fill-rule:nonzero;stroke:none"
             id="path348"
             inkscape:connector-curvature="0" /></g><g
           id="g350"
           transform="scale(2.9942279,2.9942279)"><text
             transform="translate(171,527)"
             style="font-variant:normal;font-weight:bold;font-size:24px;font-family:'Liberation Sans';-inkscape-font-specification:LiberationSans-Bold;writing-mode:lr-tb;fill:#ffffff;fill-opacity:1;fill-rule:nonzero;stroke:none"
             id="text352"><tspan
               x="0 6.6679688 21.328125 35.988281 42.65625 54.65625 68.003906 75.996094 82.664062 97.324219"
               y="0"
               sodipodi:role="line"
               id="tspan354">Ionization</tspan></text>
<text
             transform="translate(177,555)"
             style="font-variant:normal;font-weight:bold;font-size:24px;font-family:'Liberation Sans';-inkscape-font-specification:LiberationSans-Bold;writing-mode:lr-tb;fill:#ffffff;fill-opacity:1;fill-rule:nonzero;stroke:none"
             id="text356"><tspan
               x="0 14.660156 29.320312 37.3125 50.660156 65.320312 73.3125 79.980469 93.328125"
               y="0"
               sodipodi:role="line"
               id="tspan358">potential</tspan></text>
</g><g
           id="g360"
           transform="matrix(2.9942279,0,0,2.9942279,1.4971139,1.4971139)"><path
             d="m 326.20001,522 141.59998,0 c 0.55691,0 1.09268,0.10657 1.60724,0.31964 0.51455,0.21314 0.96875,0.5166 1.36261,0.91046 0.3938,0.3938 0.69726,0.84796 0.9104,1.36255 0.21316,0.51459 0.31973,1.05042 0.31976,1.60736 l 0,51.59998 c -3e-5,0.55694 -0.1066,1.09265 -0.31976,1.60718 -0.21314,0.51458 -0.5166,0.96881 -0.9104,1.36267 -0.39386,0.3938 -0.84806,0.69726 -1.36261,0.9104 -0.51456,0.21313 -1.05033,0.3197 -1.60724,0.31976 l -141.59998,0 c -0.55697,-6e-5 -1.09274,-0.10663 -1.60733,-0.31976 -0.51455,-0.21314 -0.96872,-0.5166 -1.36255,-0.9104 -0.39383,-0.39386 -0.69732,-0.84803 -0.91046,-1.36261 -0.21313,-0.51459 -0.3197,-1.0503 -0.31967,-1.60724 l 0,-51.59998 c -3e-5,-0.55694 0.10654,-1.09277 0.31967,-1.60736 0.21314,-0.51459 0.51663,-0.96875 0.91046,-1.36255 0.39383,-0.39386 0.848,-0.69732 1.36255,-0.91046 C 325.10727,522.10657 325.64304,522 326.20001,522 Z"
             style="fill:#ffa8f5;fill-opacity:1;fill-rule:nonzero;stroke:none"
             id="path362"
             inkscape:connector-curvature="0" /></g><g
           id="g364"
           transform="scale(2.9942279,2.9942279)"><text
             transform="translate(360.32813,547)"
             style="font-variant:normal;font-weight:bold;font-size:24px;font-family:'Liberation Sans';-inkscape-font-specification:LiberationSans-Bold;writing-mode:lr-tb;fill:#ffffff;fill-opacity:1;fill-rule:nonzero;stroke:none"
             id="text366"><tspan
               x="0 17.332031 24 38.660156 53.320312 59.988281"
               y="0"
               sodipodi:role="line"
               id="tspan368">Dipole</tspan></text>
<text
             transform="translate(350.32813,575)"
             style="font-variant:normal;font-weight:bold;font-size:24px;font-family:'Liberation Sans';-inkscape-font-specification:LiberationSans-Bold;writing-mode:lr-tb;fill:#ffffff;fill-opacity:1;fill-rule:nonzero;stroke:none"
             id="text370"><tspan
               x="0 21.339844 36 57.339844 70.6875 85.347656"
               y="0"
               sodipodi:role="line"
               id="tspan372">moment</tspan></text>
</g><g
           id="g374"
           transform="matrix(2.9942279,0,0,2.9942279,1.4971139,1.4971139)"><path
             d="m 827,160 52.78003,-30.89999"
             style="fill:none;stroke:#d62728;stroke-width:1;stroke-linecap:butt;stroke-linejoin:miter;stroke-miterlimit:10;stroke-dasharray:none;stroke-opacity:1"
             id="path376"
             inkscape:connector-curvature="0" /><path
             d="m 885.60999,125.69 -5.5,8.42999 -0.32996,-5.01998 -4.21002,-2.74001 10.03998,-0.67 z"
             style="fill:#d62728;fill-opacity:1;fill-rule:nonzero;stroke:none"
             id="path378"
             inkscape:connector-curvature="0" /><path
             d="m 885.60999,125.69 -5.5,8.42999 -0.32996,-5.01998 -4.21002,-2.74001 10.03998,-0.67 z"
             style="fill:none;stroke:#d62728;stroke-width:1;stroke-linecap:butt;stroke-linejoin:miter;stroke-miterlimit:10;stroke-dasharray:none;stroke-opacity:1"
             id="path380"
             inkscape:connector-curvature="0" /><path
             d="m 904,192 35.90002,0"
             style="fill:none;stroke:#d62728;stroke-width:1;stroke-linecap:butt;stroke-linejoin:miter;stroke-miterlimit:10;stroke-dasharray:none;stroke-opacity:1"
             id="path382"
             inkscape:connector-curvature="0" /><path
             d="m 946.65002,192 -9,4.5 2.25,-4.5 -2.25,-4.5 9,4.5 z"
             style="fill:#d62728;fill-opacity:1;fill-rule:nonzero;stroke:none"
             id="path384"
             inkscape:connector-curvature="0" /><path
             d="m 946.65002,192 -9,4.5 2.25,-4.5 -2.25,-4.5 9,4.5 z"
             style="fill:none;stroke:#d62728;stroke-width:1;stroke-linecap:butt;stroke-linejoin:miter;stroke-miterlimit:10;stroke-dasharray:none;stroke-opacity:1"
             id="path386"
             inkscape:connector-curvature="0" /><path
             d="m 320,432 -35.89999,0"
             style="fill:none;stroke:#e377c2;stroke-width:1;stroke-linecap:butt;stroke-linejoin:miter;stroke-miterlimit:10;stroke-dasharray:none;stroke-opacity:1"
             id="path388"
             inkscape:connector-curvature="0" /><path
             d="m 277.35001,432 9,-4.5 -2.25,4.5 2.25,4.5 -9,-4.5 z"
             style="fill:#e377c2;fill-opacity:1;fill-rule:nonzero;stroke:none"
             id="path390"
             inkscape:connector-curvature="0" /><path
             d="m 277.35001,432 9,-4.5 -2.25,4.5 2.25,4.5 -9,-4.5 z"
             style="fill:none;stroke:#e377c2;stroke-width:1;stroke-linecap:butt;stroke-linejoin:miter;stroke-miterlimit:10;stroke-dasharray:none;stroke-opacity:1"
             id="path392"
             inkscape:connector-curvature="0" /><path
             d="m 320,464 -46.07001,30.42999"
             style="fill:none;stroke:#e377c2;stroke-width:1;stroke-linecap:butt;stroke-linejoin:miter;stroke-miterlimit:10;stroke-dasharray:none;stroke-opacity:1"
             id="path394"
             inkscape:connector-curvature="0" /><path
             d="m 268.29999,498.14999 5.03,-8.70999 0.6,4.98999 4.36002,2.52002 -9.99002,1.19998 z"
             style="fill:#e377c2;fill-opacity:1;fill-rule:nonzero;stroke:none"
             id="path396"
             inkscape:connector-curvature="0" /><path
             d="m 268.29999,498.14999 5.03,-8.70999 0.6,4.98999 4.36002,2.52002 -9.99002,1.19998 z"
             style="fill:none;stroke:#e377c2;stroke-width:1;stroke-linecap:butt;stroke-linejoin:miter;stroke-miterlimit:10;stroke-dasharray:none;stroke-opacity:1"
             id="path398"
             inkscape:connector-curvature="0" /><path
             d="m 397,464 0,45.89999"
             style="fill:none;stroke:#e377c2;stroke-width:1;stroke-linecap:butt;stroke-linejoin:miter;stroke-miterlimit:10;stroke-dasharray:none;stroke-opacity:1"
             id="path400"
             inkscape:connector-curvature="0" /><path
             d="m 397,516.65002 -4.5,-9.00003 4.5,2.25 4.5,-2.25 -4.5,9.00003 z"
             style="fill:#e377c2;fill-opacity:1;fill-rule:nonzero;stroke:none"
             id="path402"
             inkscape:connector-curvature="0" /><path
             d="m 397,516.65002 -4.5,-9.00003 4.5,2.25 4.5,-2.25 -4.5,9.00003 z"
             style="fill:none;stroke:#e377c2;stroke-width:1;stroke-linecap:butt;stroke-linejoin:miter;stroke-miterlimit:10;stroke-dasharray:none;stroke-opacity:1"
             id="path404"
             inkscape:connector-curvature="0" /><path
             d="m 539.34998,357.34 -94.49997,38.82"
             style="fill:none;stroke:#7f7f7f;stroke-width:1;stroke-linecap:butt;stroke-linejoin:miter;stroke-miterlimit:10;stroke-dasharray:none;stroke-opacity:1"
             id="path406"
             inkscape:connector-curvature="0" /><path
             d="m 438.60001,398.73001 6.61999,-7.59 -0.36999,5.01999 3.79,3.31 -10.04,-0.73999 z"
             style="fill:#7f7f7f;fill-opacity:1;fill-rule:nonzero;stroke:none"
             id="path408"
             inkscape:connector-curvature="0" /><path
             d="m 438.60001,398.73001 6.61999,-7.59 -0.36999,5.01999 3.79,3.31 -10.04,-0.73999 z"
             style="fill:none;stroke:#7f7f7f;stroke-width:1;stroke-linecap:butt;stroke-linejoin:miter;stroke-miterlimit:10;stroke-dasharray:none;stroke-opacity:1"
             id="path410"
             inkscape:connector-curvature="0" /><path
             d="M 637.09998,285.17999 741.12,228.81"
             style="fill:none;stroke:#7f7f7f;stroke-width:1;stroke-linecap:butt;stroke-linejoin:miter;stroke-miterlimit:10;stroke-dasharray:none;stroke-opacity:1"
             id="path412"
             inkscape:connector-curvature="0" /><path
             d="m 747.04999,225.60001 -5.76996,8.23999 -0.16003,-5.03 -4.13001,-2.88001 10.06,-0.32998 z"
             style="fill:#7f7f7f;fill-opacity:1;fill-rule:nonzero;stroke:none"
             id="path414"
             inkscape:connector-curvature="0" /><path
             d="m 747.04999,225.60001 -5.76996,8.23999 -0.16003,-5.03 -4.13001,-2.88001 10.06,-0.32998 z"
             style="fill:none;stroke:#7f7f7f;stroke-width:1;stroke-linecap:butt;stroke-linejoin:miter;stroke-miterlimit:10;stroke-dasharray:none;stroke-opacity:1"
             id="path416"
             inkscape:connector-curvature="0" /><path
             d="M 516.90002,285.17999 412.88,228.81"
             style="fill:none;stroke:#7f7f7f;stroke-width:1;stroke-linecap:butt;stroke-linejoin:miter;stroke-miterlimit:10;stroke-dasharray:none;stroke-opacity:1"
             id="path418"
             inkscape:connector-curvature="0" /><path
             d="m 406.95001,225.60001 10.06,0.32998 -4.13001,2.88001 -0.16,5.03 -5.76999,-8.23999 z"
             style="fill:#7f7f7f;fill-opacity:1;fill-rule:nonzero;stroke:none"
             id="path420"
             inkscape:connector-curvature="0" /><path
             d="m 406.95001,225.60001 10.06,0.32998 -4.13001,2.88001 -0.16,5.03 -5.76999,-8.23999 z"
             style="fill:none;stroke:#7f7f7f;stroke-width:1;stroke-linecap:butt;stroke-linejoin:miter;stroke-miterlimit:10;stroke-dasharray:none;stroke-opacity:1"
             id="path422"
             inkscape:connector-curvature="0" /><path
             d="M 327,160 274.22,129.10001"
             style="fill:none;stroke:#ff7f0e;stroke-width:1;stroke-linecap:butt;stroke-linejoin:miter;stroke-miterlimit:10;stroke-dasharray:none;stroke-opacity:1"
             id="path424"
             inkscape:connector-curvature="0" /><path
             d="m 268.39001,125.69 10.03998,0.67 -4.20999,2.74001 -0.32999,5.01998 -5.5,-8.42999 z"
             style="fill:#ff7f0e;fill-opacity:1;fill-rule:nonzero;stroke:none"
             id="path426"
             inkscape:connector-curvature="0" /><path
             d="m 268.39001,125.69 10.03998,0.67 -4.20999,2.74001 -0.32999,5.01998 -5.5,-8.42999 z"
             style="fill:none;stroke:#ff7f0e;stroke-width:1;stroke-linecap:butt;stroke-linejoin:miter;stroke-miterlimit:10;stroke-dasharray:none;stroke-opacity:1"
             id="path428"
             inkscape:connector-curvature="0" /><path
             d="m 250,192 -35.89999,0"
             style="fill:none;stroke:#ff7f0e;stroke-width:1;stroke-linecap:butt;stroke-linejoin:miter;stroke-miterlimit:10;stroke-dasharray:none;stroke-opacity:1"
             id="path430"
             inkscape:connector-curvature="0" /><path
             d="m 207.35001,192 9,-4.5 -2.25,4.5 2.25,4.5 -9,-4.5 z"
             style="fill:#ff7f0e;fill-opacity:1;fill-rule:nonzero;stroke:none"
             id="path432"
             inkscape:connector-curvature="0" /><path
             d="m 207.35001,192 9,-4.5 -2.25,4.5 2.25,4.5 -9,-4.5 z"
             style="fill:none;stroke:#ff7f0e;stroke-width:1;stroke-linecap:butt;stroke-linejoin:miter;stroke-miterlimit:10;stroke-dasharray:none;stroke-opacity:1"
             id="path434"
             inkscape:connector-curvature="0" /></g></g></g></g></svg>